<?xml version="1.0" encoding="utf-8"?>
<!-- Generator: Adobe Illustrator 19.2.1, SVG Export Plug-In . SVG Version: 6.00 Build 0)  -->
<svg version="1.1" id="Calque_1" xmlns="http://www.w3.org/2000/svg" xmlns:xlink="http://www.w3.org/1999/xlink" x="0px" y="0px"
	 viewBox="0 0 128.1 155.7" style="enable-background:new 0 0 128.1 155.7;" xml:space="preserve">
<style type="text/css">
	.st0{fill:#FFFFFF;}
</style>
<g>
	<path class="st0" d="M35.6,141.1h-1.8c0.2-8.8,3.7-27.5,10.3-56.3C50.7,56.1,54,38.9,54,33.3c0-2.8-0.1-4.4-0.2-5
		c-6.6,3.6-13.8,9.3-21.6,17.1c-1.4-0.7-2.9-2-4.4-3.9c-1.5-1.9-2.6-3.5-3.3-5l-1.1-2.2l30.1-19.3c8.9-1.6,18-2.3,27.4-2.3
		c1.4,2.4,2.2,6.2,2.2,11.4c0,5.2-1.5,14.3-4.5,27.4c-3,13-6.1,27.5-9.4,43.6c-3.2,16-5,30.2-5.4,42.4
		C59.4,139.9,50,141.1,35.6,141.1z"/>
</g>
</svg>
