<?xml version="1.0" encoding="utf-8"?>
<!-- Generator: Adobe Illustrator 19.2.1, SVG Export Plug-In . SVG Version: 6.00 Build 0)  -->
<svg version="1.1" id="Calque_1" xmlns="http://www.w3.org/2000/svg" xmlns:xlink="http://www.w3.org/1999/xlink" x="0px" y="0px"
	 viewBox="0 0 128.1 155.7" style="enable-background:new 0 0 128.1 155.7;" xml:space="preserve">
<style type="text/css">
	.st0{fill:#F2F2F2;}
</style>
<g>
	<path class="st0" d="M86.3,144.7c-4.2,0-10.5-2.4-18.9-7.3c-8.4-4.9-15.4-8.1-20.9-9.6c-4.1,4.3-8,7.8-11.8,10.5
		c-3.8,2.7-6.3,4-7.6,4c-1.3,0-3.7-2.1-7.1-6.4c-3.4-4.3-5.1-7.5-5.1-9.7c0-2.2,2-5.4,6-9.5c4-4.1,8.7-6.2,14-6.2
		c3.2,0,6.4,0.4,9.5,1.1c8.4-6.7,16.4-16.5,23.9-29.3c7.6-12.8,11.3-24,11.3-33.6c0-5.4-1.6-9.6-4.9-12.7c-3.2-3.1-7.2-4.6-11.8-4.6
		c-4.6,0-9.1,1.5-13.5,4.5c-4.4,3-8.1,7.1-11.3,12.4l-8.3-3.6c2.4-7.6,7.8-14.6,16.3-21.2c8.5-6.6,17.9-9.9,28.3-9.9
		c10.4,0,18.5,2.8,24.3,8.5c5.8,5.6,8.7,12.7,8.7,21.2c0,6.1-1.8,12.8-5.3,20.1c-3.5,7.3-8.1,14.2-13.6,20.8
		c-10.3,12.1-20.6,22.3-31,30.6c15,4.1,26.6,6.1,34.7,6.1c2.3,0,4-0.6,5-1.9s2.8-4.2,5-8.7l5.9,1.3
		C107.2,133.7,99.8,144.7,86.3,144.7z"/>
</g>
</svg>
