<?xml version="1.0" encoding="utf-8"?>
<!-- Generator: Adobe Illustrator 19.2.1, SVG Export Plug-In . SVG Version: 6.00 Build 0)  -->
<svg version="1.1" id="Calque_1" xmlns="http://www.w3.org/2000/svg" xmlns:xlink="http://www.w3.org/1999/xlink" x="0px" y="0px"
	 viewBox="0 0 128.1 155.7" style="enable-background:new 0 0 128.1 155.7;" xml:space="preserve">
<style type="text/css">
	.st0{fill:#FFFFFF;}
</style>
<g>
	<path class="st0" d="M47.9,21.6c7.3-5.7,15.8-8.5,25.5-8.5c9.7,0,17.5,2.6,23.4,7.8c5.9,5.2,8.9,11.6,8.9,19c0,7.4-2.8,14-8.3,19.7
		c-5.5,5.7-12.4,9.6-20.7,11.8c8.2,1.4,14.9,4.9,20.1,10.4c5.2,5.5,7.8,12.7,7.8,21.4c0,11-4.6,20.4-13.9,28.2
		c-9.2,7.7-20,11.6-32.4,11.6c-13.4,0-24.1-4-32-11.9c-4.2-4.1-6.3-8.9-6.3-14.6c0-1.8,0.5-4,1.4-6.6c1-2.6,2.2-4.6,3.6-6
		c1.2-0.2,2.5-0.4,4-0.4c8.5,0,15.1,2.3,19.6,6.8l-2.5,19.1c1.7,1.3,4.5,2,8.5,2c6,0,11.2-3.1,15.6-9.5c4.4-6.3,6.6-13.8,6.6-22.4
		c0-8.6-1.9-14.5-5.8-17.7c-3.8-3.2-10.2-4.8-19.1-4.8l-4.1,0.2l1.1-9.2c5.9-0.6,10.3-1.6,13.2-3c2.9-1.4,5.7-3,8.2-5
		c5.6-4.1,8.5-10.1,8.5-18.2c0-5-1.3-8.8-4-11.3c-2.7-2.5-5.9-3.7-9.6-3.7c-9.8,0-17.8,5.8-23.8,17.5l-7.9-3.4
		C35.8,33.8,40.6,27.3,47.9,21.6z"/>
</g>
</svg>
