<?xml version="1.0" encoding="utf-8"?>
<!-- Generator: Adobe Illustrator 19.2.1, SVG Export Plug-In . SVG Version: 6.00 Build 0)  -->
<svg version="1.1" id="Calque_1" xmlns="http://www.w3.org/2000/svg" xmlns:xlink="http://www.w3.org/1999/xlink" x="0px" y="0px"
	 viewBox="0 0 128.1 155.7" style="enable-background:new 0 0 128.1 155.7;" xml:space="preserve">
<style type="text/css">
	.st0{fill:#F2F2F2;}
</style>
<g>
	<path class="st0" d="M107.4,112.4c-2.5,1.7-5.5,2.5-9,2.5c-3.5,0-6.6-0.2-9.4-0.7c-1.2,9-1.8,16.9-1.8,23.8
		c-4.7,2.4-14.1,3.6-28.3,3.6h-1.8c0-5.3,1.7-16.1,5-32.6c-7.6-1.2-14.3-1.8-20.3-1.8S30.7,108,26,109.5l-7,2.5h-0.2
		c-1.2,0-2.7-1.3-4.6-4c-1.9-2.6-2.8-5.1-3-7.4c0-0.8,1.1-2.3,3.2-4.5c18.8-26.8,37.9-53.5,57.2-80.1c7.7-1.7,18.4-2.7,32-3.1
		c1.6,2.4,2.3,5.8,2.3,10.2c0,4.4-0.7,10.1-2.1,17c-1.4,7-3.3,15.8-5.9,26.6s-4.4,19.7-5.8,26.6c4.6,0.2,8.1,0.4,10.7,0.4
		c2.6,0,4.5-0.9,5.7-2.7l2.9-4.9l6.5,2.2C116.4,100.9,112.8,108.9,107.4,112.4z M66.1,90.4c7.7-33.7,11.6-54.1,11.7-61.2
		c-11,12.7-24.6,32.4-40.7,59C45.2,88.4,54.9,89.1,66.1,90.4z"/>
</g>
</svg>
