<?xml version="1.0" encoding="utf-8"?>
<!-- Generator: Adobe Illustrator 19.2.1, SVG Export Plug-In . SVG Version: 6.00 Build 0)  -->
<svg version="1.1" id="Calque_1" xmlns="http://www.w3.org/2000/svg" xmlns:xlink="http://www.w3.org/1999/xlink" x="0px" y="0px"
	 viewBox="0 0 1083.1 1203.1" style="enable-background:new 0 0 1083.1 1203.1;" xml:space="preserve">
<style type="text/css">
	.st0{fill:url(#SVGID_1_);}
	.st1{fill:#5BA949;}
	.st2{fill:#97CB64;}
</style>
<g>
	
		<radialGradient id="SVGID_1_" cx="552.4088" cy="1104.8181" r="237.3854" gradientTransform="matrix(1 0 0 0.3 0 773.3727)" gradientUnits="userSpaceOnUse">
		<stop  offset="0" style="stop-color:#5BA949;stop-opacity:0.5"/>
		<stop  offset="1" style="stop-color:#5BA949;stop-opacity:0"/>
	</radialGradient>
	<ellipse class="st0" cx="552.4" cy="1104.8" rx="329.9" ry="62.3"/>
	<path class="st1" d="M459.2,367c0,49.3,48.8,110.6,70.7,141.5c4.7,6.5,21.8,6.5,26.4,0c22-30.9,70.7-96.6,70.7-141.5
		c0-46.4-37.6-84-84-84C496.8,283,459.2,320.6,459.2,367z"/>
	<path class="st2" d="M682,723.6c-9.9,13.4-30.2,12.7-39.1-1.4l-22.1-34.9c-1.9-2.4-3.4-4.7-4.8-7.4l-9-13.7
		c-5.2-8.2-4.3-16.9,1.4-24.7l7.2-8.7c1.7-2.1,3.1-4.7,4.7-6.8c74.7-102.2,124-161.6,127.5-233.6h0c0.3-15,0.1-23.4-0.2-30.1
		c0-0.3-0.2-11.5-0.2-11.7c-0.5-6.4-1.4-12.5-2.6-19c-0.1-0.7-0.3-1.2-0.4-1.9c-0.7-3.6-1.6-7.1-2.6-10.8c-0.2-0.7-0.3-1.3-0.5-1.9
		c-0.5-1.9-1.1-3.8-1.7-5.8c-0.3-0.9-0.6-1.8-0.9-2.7c-1.1-3.4-2.4-6.8-3.7-10.3c-0.3-0.8-0.6-1.6-0.9-2.4c-0.8-2-1.6-4-2.5-6
		c-0.3-0.8-0.7-1.6-1-2.3c-1.7-3.9-3.6-7.8-5.6-11.8c-0.2-0.5-0.5-0.9-0.7-1.4c-1.2-2.3-2.4-4.6-3.7-6.9c-0.1-0.2-0.3-0.5-0.4-0.7
		c-1.3-2.3-2.6-4.6-3.9-7c-27.1-46.4-70.9-79.3-123.2-92.9c-52.9-13.7-107.9-5.7-155,22.1c-63.9,37.8-99.4,104.7-99.6,175.2
		c0.1,35,9.2,70.4,28.2,102.6l238.8,403.3c1.8,3,3.2,6,4.3,9.2l6.7,11.2c4.9,8.3,4.3,18.7-1.5,26.3l-41.3,53.8
		c-10.1,13.1-30.2,12-38.8-2.2l-21.9-36.3c-1.3-1.7-2.4-3.4-3.5-5.2L270.8,523.8C182.4,374.5,232,181.1,381.3,92.7
		c72.8-43.1,157.9-55.1,239.8-33.9c81.3,21.1,149.3,72.4,191.5,144.7c16.2,27.7,28.2,55.3,36,83c0,0.1,0,0.1,0.1,0.2
		c14.4,50.8,14.7,101.8,1,154c-0.1,0.5-0.3,1-0.4,1.5c-0.8,2.9-1.6,5.9-2.5,8.8c-0.3,0.9-0.5,1.7-0.8,2.6c-1,3.4-2,6.9-3.2,10.3
		c-0.1,0.4-0.3,0.8-0.3,1.1v0c-26,76.3-80,150-132,221.2L682,723.6z"/>
	<path class="st2" d="M490.8,301.3c56.9,11.7,99.7,62,99.7,122.3c0,19-4.3,37-11.9,53.2c-8.4,12.4-16.3,23.3-22.3,31.7
		c-4.7,6.5-21.8,6.5-26.4,0c-22-30.9-70.7-92.3-70.7-141.5C459.2,340.4,471.6,316.7,490.8,301.3z"/>
	<path class="st1" d="M486.1,106c-128.7,0-235.5,99.9-256.3,222.7c-1.9,14-2.8,24.8-2.7,48.8h0c0,0,0.1,1.2,0.3,5.1
		c0,0.3,0-2.5,0.1-2.2c0.2,3.9,0.4,6.2,0.7,10.1c0.1,0.8,0.1,0.7,0.2,1.5c0.4,4.1,0.8,7.8,1.3,11.9c0,0.1,0,0,0,0
		c1.1,9,2.7,17.9,4.6,26.8c0,0,0,0,0,0.1c0,0,0,0,0,0c7,32,19,63.3,36.5,93l238.8,403.3c1.1,1.8,2.3,3.6,3.5,5.2l21.9,36.3
		c8.5,14.2,28.7,15.3,38.8,2.2l41.3-53.8c5.8-7.6,6.5-18,1.5-26.3l-5.5-10c-1.4-2.8-3.6-6.6-5.5-10.3L460.2,624.8h0L366.8,467
		c-1.2-2-2.3-4-3.4-6.1c-0.5-1-1-1.9-1.5-2.9c-0.6-1.1-1.1-2.1-1.7-3.2c-0.6-1.3-1.3-2.6-1.9-3.9c-0.4-0.8-0.7-1.5-1.1-2.3
		c-0.7-1.4-1.3-2.9-1.9-4.3c-0.3-0.6-0.6-1.3-0.8-1.9c-0.7-1.6-1.3-3.2-1.9-4.8c-0.2-0.5-0.4-1-0.6-1.5c-0.7-1.7-1.3-3.4-1.9-5.2
		c-0.1-0.4-0.3-0.8-0.4-1.2c-0.6-1.9-1.2-3.7-1.8-5.6c-0.1-0.3-0.2-0.5-0.2-0.8c-0.6-2-1.2-4-1.7-5.9c0-0.2-0.1-0.3-0.1-0.5
		c-0.6-2-1.1-4.1-1.6-6.1c0-0.1-0.1-0.2-0.1-0.3c-3.6-15-5.4-30.3-5.5-45.5l0,0c0-0.3,0-0.6,0-0.8c0.1-70.6,35.7-137.4,99.6-175.2
		c47-27.8,102.1-35.9,155-22.1c52.3,13.6,96.1,46.5,123.2,92.9c1.4,2.3,2.7,4.7,3.9,7c0.1,0.2,0.3,0.5,0.4,0.7
		c1.3,2.3,2.5,4.6,3.7,6.9c0.2,0.5,0.5,0.9,0.7,1.4c2,4,3.9,7.9,5.6,11.8c0.3,0.8,0.7,1.6,1,2.3c0.9,2,1.7,4,2.5,6
		c0.3,0.8,0.6,1.6,0.9,2.4c1.3,3.5,2.6,6.9,3.7,10.3c0.3,0.9,0.6,1.8,0.9,2.7c0.6,1.9,1.2,3.9,1.7,5.8c0.2,0.7,0.3,1.3,0.5,2
		c0,0,0,0.1,0,0.1C719.9,198,613.8,106,486.1,106z"/>
</g>
</svg>
