<?xml version="1.0" encoding="utf-8"?>
<!-- Generator: Adobe Illustrator 19.2.1, SVG Export Plug-In . SVG Version: 6.00 Build 0)  -->
<svg version="1.1" id="Calque_1" xmlns="http://www.w3.org/2000/svg" xmlns:xlink="http://www.w3.org/1999/xlink" x="0px" y="0px"
	 viewBox="0 0 1083.1 1203.1" style="enable-background:new 0 0 1083.1 1203.1;" xml:space="preserve">
<style type="text/css">
	.st0{fill:#5BA949;}
</style>
<g>
	<g>
		<path class="st0" d="M733.7,284.4L440.7,577.3c-7.3,7.3-19.1,7.3-26.4,0L361.1,524c-3.5-3.5-5.5-8.2-5.5-13.2s2-9.7,5.5-13.2
			L654,204.8c7.3-7.3,19.1-7.3,26.4,0l53.3,53.3c3.5,3.5,5.5,8.2,5.5,13.2C739.1,276.1,737.2,280.9,733.7,284.4z"/>
		<path class="st0" d="M401.1,601.5c-1,5.9-4.8,11-10.2,13.6L308,655.3c-7.2,3.5-15.7,2-21.3-3.6c-3.6-3.6-5.5-8.4-5.5-13.2
			c0-2.8,0.6-5.5,1.9-8.1l40.2-82.8c2.6-5.4,7.7-9.2,13.7-10.2s12,0.9,16.3,5.2l41.2,41.2l1.4,1.5c3.5,3.5,5.4,8.3,5.4,13.1
			C401.3,599.4,401.2,600.4,401.1,601.5z"/>
		<path class="st0" d="M805.4,204.9c0,4.8-1.8,9.5-5.5,13.2l-26.7,26.7c-3.5,3.5-8.2,5.5-13.2,5.5c-4.9,0-9.7-2-13.2-5.5l-53.3-53.2
			c-3.5-3.5-5.5-8.2-5.5-13.2c0-4.9,2-9.7,5.5-13.2l26.7-26.7c7.3-7.3,19.1-7.3,26.4,0l53.2,53.3
			C803.5,195.4,805.4,200.2,805.4,204.9z"/>
	</g>
	<path class="st0" d="M331.8,468.3c-7.9,7.9-13,17.6-15.6,28.1h-86.6v408.7l627.3,0V496.5l-276.7,0l101.4-101.4h226
		c13.5,0,26.3,5.3,35.8,14.9c9.6,9.6,14.8,22.3,14.8,35.8v510c0,13.5-5.3,26.2-14.8,35.8c-9.6,9.6-22.3,14.8-35.8,14.8H179
		c-13.5,0-26.3-5.3-35.8-14.8c-9.6-9.6-14.8-22.3-14.8-35.8v-510c0-13.5,5.3-26.2,14.9-35.8c9.6-9.6,22.3-14.9,35.8-14.9h226
		L331.8,468.3z"/>
</g>
</svg>
