<?xml version="1.0" encoding="utf-8"?>
<!-- Generator: Adobe Illustrator 19.2.1, SVG Export Plug-In . SVG Version: 6.00 Build 0)  -->
<svg version="1.1" id="Calque_1" xmlns="http://www.w3.org/2000/svg" xmlns:xlink="http://www.w3.org/1999/xlink" x="0px" y="0px"
	 viewBox="0 0 1083.1 1203.1" style="enable-background:new 0 0 1083.1 1203.1;" xml:space="preserve">
<style type="text/css">
	.st0{fill:#5BA949;}
</style>
<g>
	<path class="st0" d="M418,419.9h53.1v250.3c0,21.7,17.3,39,39,39h59.6c21.7,0,39-17.3,39-39V419.9h53.1c22.8,0,30.3-14.1,15.2-32.5
		l-109.5-130c-15.2-17.3-39-17.3-54.2,0l-109.5,130C388.7,405.8,395.2,419.9,418,419.9z"/>
	<path class="st0" d="M982.6,428.6l-169.1,14.1c-22.8,2.2-28.2,17.3-11.9,33.6l37.9,37.9L662.9,690.8c-15.2,15.2-15.2,39,0,54.2
		l42.3,42.3c15.2,15.2,39,15.2,54.2,0L936,610.7l37.9,37.9c16.3,16.3,31.4,10.8,33.6-11.9l14.1-169.1
		C1023.8,443.8,1006.4,426.4,982.6,428.6z"/>
	<path class="st0" d="M242.4,514.2l37.9-37.9c16.3-16.3,10.8-31.4-11.9-33.6L99.4,428.6c-22.8-2.2-40.1,15.2-37.9,37.9l14.1,169.1
		c1.1,23.8,16.3,29.3,32.5,13l37.9-37.9l176.6,176.6c15.2,15.2,39,15.2,54.2,0l42.3-42.3c15.2-15.2,15.2-39,0-54.2L242.4,514.2z"/>
	<circle class="st0" cx="540.4" cy="846.9" r="92.1"/>
</g>
</svg>
