<?xml version="1.0" encoding="utf-8"?>
<!-- Generator: Adobe Illustrator 19.2.1, SVG Export Plug-In . SVG Version: 6.00 Build 0)  -->
<svg version="1.1" id="Calque_1" xmlns="http://www.w3.org/2000/svg" xmlns:xlink="http://www.w3.org/1999/xlink" x="0px" y="0px"
	 viewBox="0 0 800 600" style="enable-background:new 0 0 800 600;" xml:space="preserve">
<style type="text/css">
	.st0{fill:url(#SVGID_1_);}
	.st1{fill:#E6E7E8;}
	.st2{fill:#FFFFFF;}
</style>
<g>
	
		<radialGradient id="SVGID_1_" cx="398.3555" cy="350.1717" r="45.5335" gradientTransform="matrix(1 0 0 0.3 0 245.1202)" gradientUnits="userSpaceOnUse">
		<stop  offset="0" style="stop-color:#FFFFFF;stop-opacity:0.5"/>
		<stop  offset="1" style="stop-color:#FFFFFF;stop-opacity:0"/>
	</radialGradient>
	<ellipse class="st0" cx="398.4" cy="350.2" rx="63.3" ry="11.9"/>
	<path class="st1" d="M380.5,208.6c0,9.4,9.4,21.2,13.6,27.1c0.9,1.3,4.2,1.3,5.1,0c4.2-5.9,13.6-18.5,13.6-27.1
		c0-8.9-7.2-16.1-16.1-16.1S380.5,199.7,380.5,208.6z"/>
	<path class="st2" d="M423.2,277.1c-1.9,2.6-5.8,2.4-7.5-0.3l-4.2-6.7c-0.4-0.5-0.7-0.9-0.9-1.4l-1.7-2.6c-1-1.6-0.8-3.2,0.3-4.7
		l1.4-1.7c0.3-0.4,0.6-0.7,0.9-1.1c14.3-19.6,23.8-31.6,24.5-44.6h0c0.1-3,0-4.7,0-6c0-0.1,0-2.3,0-2.4c-0.1-1.2-0.3-2.5-0.5-3.7
		c0-0.1-0.1-0.3-0.1-0.4c-0.1-0.7-0.3-1.4-0.5-2.1c0-0.1-0.1-0.3-0.1-0.4c-0.1-0.4-0.2-0.7-0.3-1.1c-0.1-0.2-0.1-0.3-0.2-0.5
		c-0.2-0.7-0.5-1.3-0.7-2c-0.1-0.2-0.1-0.3-0.2-0.5c-0.2-0.4-0.3-0.8-0.5-1.2c-0.1-0.1-0.1-0.3-0.2-0.4c-0.3-0.7-0.7-1.5-1.1-2.3
		c0-0.1-0.1-0.2-0.1-0.3c-0.2-0.4-0.5-0.9-0.7-1.3c0,0,0-0.1-0.1-0.1c-0.2-0.4-0.5-0.9-0.8-1.3c-5.2-8.9-13.6-15.2-23.6-17.8
		c-10.1-2.6-20.7-1.1-29.7,4.2c-12.3,7.3-19.1,20.1-19.1,33.6c0,6.7,1.8,13.5,5.4,19.7l45.8,77.4c0.3,0.6,0.6,1.2,0.8,1.8l1.3,2.2
		c0.9,1.6,0.8,3.6-0.3,5l-7.9,10.3c-1.9,2.5-5.8,2.3-7.4-0.4l-4.2-7c-0.2-0.3-0.5-0.7-0.7-1l-45.8-77.4c-17-28.6-7.4-65.7,21.2-82.7
		c14-8.3,30.3-10.6,46-6.5c15.6,4,28.6,13.9,36.7,27.8c3.1,5.3,5.4,10.6,6.9,15.9c0,0,0,0,0,0c2.8,9.7,2.8,19.5,0.2,29.5
		c0,0.1-0.1,0.2-0.1,0.3c-0.2,0.6-0.3,1.1-0.5,1.7c0,0.2-0.1,0.3-0.1,0.5c-0.2,0.7-0.4,1.3-0.6,2c0,0.1-0.1,0.1-0.1,0.2l0,0
		c-5,14.6-15.3,28.8-25.3,42.4L423.2,277.1z"/>
	<path class="st2" d="M386.5,196.1c10.9,2.2,19.1,11.9,19.1,23.5c0,3.6-0.8,7.1-2.3,10.2c-1.6,2.4-3.1,4.5-4.3,6.1
		c-0.9,1.3-4.2,1.3-5.1,0c-4.2-5.9-13.6-17.7-13.6-27.1C380.5,203.5,382.8,199,386.5,196.1z"/>
	<path class="st1" d="M385.6,158.6c-24.7,0-45.2,19.3-49.2,42.9c-0.4,2.7-0.5,4.5-0.5,9.5h0c0,0,0,0.1,0,0.8c0,0.1,0-0.6,0-0.5
		c0,0.7,0.1,1.1,0.1,1.9c0,0.1,0,0.1,0,0.3c0.1,0.8,0.1,1.5,0.2,2.3c0,0,0,0,0,0c0.2,1.7,0.5,3.4,0.9,5.1c0,0,0,0,0,0c0,0,0,0,0,0
		c1.3,6.1,3.6,12.1,7,17.8l45.8,77.4c0.2,0.4,0.4,0.7,0.7,1l4.2,7c1.6,2.7,5.5,2.9,7.4,0.4l7.9-10.3c1.1-1.5,1.2-3.5,0.3-5l-1.1-1.9
		c-0.3-0.5-0.7-1.3-1.1-2l-27.9-47.1h0l-17.9-30.3c-0.2-0.4-0.4-0.8-0.7-1.2c-0.1-0.2-0.2-0.4-0.3-0.6c-0.1-0.2-0.2-0.4-0.3-0.6
		c-0.1-0.2-0.2-0.5-0.4-0.7c-0.1-0.1-0.1-0.3-0.2-0.4c-0.1-0.3-0.2-0.6-0.4-0.8c-0.1-0.1-0.1-0.2-0.2-0.4c-0.1-0.3-0.2-0.6-0.4-0.9
		c0-0.1-0.1-0.2-0.1-0.3c-0.1-0.3-0.2-0.7-0.4-1c0-0.1-0.1-0.1-0.1-0.2c-0.1-0.4-0.2-0.7-0.4-1.1c0,0,0-0.1,0-0.1
		c-0.1-0.4-0.2-0.8-0.3-1.1c0,0,0-0.1,0-0.1c-0.1-0.4-0.2-0.8-0.3-1.2c0,0,0,0,0-0.1c-0.7-2.9-1-5.8-1-8.7l0,0c0-0.1,0-0.1,0-0.2
		c0-13.5,6.8-26.4,19.1-33.6c9-5.3,19.6-6.9,29.7-4.2c10,2.6,18.4,8.9,23.6,17.8c0.3,0.4,0.5,0.9,0.8,1.3c0,0,0,0.1,0.1,0.1
		c0.2,0.4,0.5,0.9,0.7,1.3c0,0.1,0.1,0.2,0.1,0.3c0.4,0.8,0.7,1.5,1.1,2.3c0.1,0.1,0.1,0.3,0.2,0.4c0.2,0.4,0.3,0.8,0.5,1.2
		c0.1,0.2,0.1,0.3,0.2,0.5c0.3,0.7,0.5,1.3,0.7,2c0.1,0.2,0.1,0.3,0.2,0.5c0.1,0.4,0.2,0.7,0.3,1.1c0,0.1,0.1,0.3,0.1,0.4
		c0,0,0,0,0,0C430.5,176.2,410.1,158.6,385.6,158.6z"/>
</g>
<g>
	<path class="st2" d="M253.4,452.9c2.1,0,3.2-0.7,3.2-2.2c0-0.5-0.1-0.8-0.3-1.2c-0.2-0.3-0.4-0.6-0.8-0.8s-0.7-0.4-1.1-0.6
		c-0.4-0.2-0.9-0.3-1.3-0.5c-0.5-0.2-1-0.4-1.5-0.6s-0.9-0.5-1.3-0.8c-0.4-0.3-0.6-0.7-0.8-1.1c-0.2-0.4-0.3-1-0.3-1.6
		c0-1.3,0.4-2.3,1.3-3c0.9-0.7,2.1-1.1,3.6-1.1c0.9,0,1.7,0.1,2.4,0.3c0.7,0.2,1.3,0.4,1.6,0.6l-0.7,1.7c-0.3-0.2-0.7-0.4-1.3-0.5
		c-0.6-0.2-1.3-0.3-2-0.3c-0.4,0-0.8,0-1.1,0.1c-0.3,0.1-0.6,0.2-0.9,0.4c-0.3,0.2-0.5,0.4-0.6,0.6c-0.1,0.3-0.2,0.6-0.2,0.9
		c0,0.4,0.1,0.7,0.2,1c0.2,0.3,0.4,0.5,0.7,0.7c0.3,0.2,0.6,0.4,1,0.6c0.4,0.2,0.8,0.3,1.2,0.5c0.6,0.3,1.2,0.5,1.7,0.8
		c0.5,0.3,1,0.6,1.4,0.9c0.4,0.4,0.7,0.8,0.9,1.3c0.2,0.5,0.3,1.1,0.3,1.8c0,1.3-0.5,2.3-1.4,3s-2.3,1-4,1c-0.6,0-1.1,0-1.6-0.1
		c-0.5-0.1-0.9-0.2-1.3-0.3s-0.7-0.2-1-0.3c-0.3-0.1-0.5-0.2-0.6-0.3l0.6-1.7c0.3,0.2,0.8,0.4,1.5,0.6
		C251.6,452.8,252.4,452.9,253.4,452.9z"/>
	<path class="st2" d="M272.3,454.3c-0.2-0.6-0.5-1.3-0.7-1.9c-0.2-0.6-0.4-1.2-0.7-1.9h-6.7l-1.3,3.8h-2.1c0.6-1.6,1.1-3,1.6-4.3
		c0.5-1.3,1-2.6,1.5-3.8c0.5-1.2,0.9-2.3,1.4-3.4c0.5-1.1,1-2.2,1.5-3.2h1.9c0.5,1.1,1,2.1,1.5,3.2s0.9,2.2,1.4,3.4
		c0.5,1.2,1,2.4,1.5,3.8c0.5,1.3,1,2.8,1.6,4.3H272.3z M270.4,448.9c-0.5-1.2-0.9-2.4-1.3-3.6c-0.4-1.2-0.9-2.3-1.4-3.3
		c-0.5,1.1-1,2.2-1.4,3.3c-0.4,1.2-0.9,2.3-1.3,3.6H270.4z"/>
	<path class="st2" d="M283.7,454.6c-1,0-2-0.2-2.8-0.5c-0.8-0.3-1.6-0.8-2.2-1.5s-1.1-1.5-1.4-2.4s-0.5-2-0.5-3.3
		c0-1.2,0.2-2.3,0.6-3.3c0.4-1,0.9-1.8,1.5-2.4c0.6-0.6,1.4-1.1,2.2-1.5c0.8-0.3,1.8-0.5,2.7-0.5c0.6,0,1.2,0,1.6,0.1
		c0.5,0.1,0.9,0.2,1.3,0.3c0.4,0.1,0.7,0.2,0.9,0.3c0.2,0.1,0.4,0.2,0.5,0.3l-0.6,1.7c-0.1-0.1-0.3-0.2-0.6-0.3
		c-0.2-0.1-0.5-0.2-0.8-0.3c-0.3-0.1-0.6-0.2-1-0.2c-0.4-0.1-0.7-0.1-1.1-0.1c-0.8,0-1.5,0.1-2.1,0.4s-1.2,0.7-1.6,1.2
		c-0.4,0.5-0.8,1.1-1,1.9c-0.2,0.7-0.4,1.5-0.4,2.4c0,0.9,0.1,1.7,0.3,2.4s0.5,1.3,0.9,1.9c0.4,0.5,0.9,0.9,1.5,1.2
		c0.6,0.3,1.3,0.4,2.2,0.4c0.9,0,1.7-0.1,2.4-0.3c0.6-0.2,1.1-0.4,1.4-0.5l0.5,1.7c-0.1,0.1-0.3,0.2-0.5,0.3c-0.3,0.1-0.6,0.2-1,0.3
		c-0.4,0.1-0.8,0.2-1.3,0.3S284.3,454.6,283.7,454.6z"/>
	<path class="st2" d="M295.5,452.9c2.1,0,3.2-0.7,3.2-2.2c0-0.5-0.1-0.8-0.3-1.2c-0.2-0.3-0.4-0.6-0.8-0.8s-0.7-0.4-1.1-0.6
		c-0.4-0.2-0.9-0.3-1.3-0.5c-0.5-0.2-1-0.4-1.5-0.6s-0.9-0.5-1.3-0.8c-0.4-0.3-0.6-0.7-0.8-1.1c-0.2-0.4-0.3-1-0.3-1.6
		c0-1.3,0.4-2.3,1.3-3c0.9-0.7,2.1-1.1,3.6-1.1c0.9,0,1.7,0.1,2.4,0.3c0.7,0.2,1.3,0.4,1.6,0.6l-0.7,1.7c-0.3-0.2-0.7-0.4-1.3-0.5
		c-0.6-0.2-1.3-0.3-2-0.3c-0.4,0-0.8,0-1.1,0.1c-0.3,0.1-0.6,0.2-0.9,0.4c-0.3,0.2-0.5,0.4-0.6,0.6c-0.1,0.3-0.2,0.6-0.2,0.9
		c0,0.4,0.1,0.7,0.2,1c0.2,0.3,0.4,0.5,0.7,0.7c0.3,0.2,0.6,0.4,1,0.6c0.4,0.2,0.8,0.3,1.2,0.5c0.6,0.3,1.2,0.5,1.7,0.8
		c0.5,0.3,1,0.6,1.4,0.9c0.4,0.4,0.7,0.8,0.9,1.3c0.2,0.5,0.3,1.1,0.3,1.8c0,1.3-0.5,2.3-1.4,3s-2.3,1-4,1c-0.6,0-1.1,0-1.6-0.1
		c-0.5-0.1-0.9-0.2-1.3-0.3s-0.7-0.2-1-0.3c-0.3-0.1-0.5-0.2-0.6-0.3l0.6-1.7c0.3,0.2,0.8,0.4,1.5,0.6
		C293.7,452.8,294.5,452.9,295.5,452.9z"/>
	<path class="st2" d="M320.6,454.3c-0.2-0.6-0.5-1.3-0.7-1.9c-0.2-0.6-0.4-1.2-0.7-1.9h-6.7l-1.3,3.8h-2.1c0.6-1.6,1.1-3,1.6-4.3
		c0.5-1.3,1-2.6,1.5-3.8c0.5-1.2,0.9-2.3,1.4-3.4c0.5-1.1,1-2.2,1.5-3.2h1.9c0.5,1.1,1,2.1,1.5,3.2s0.9,2.2,1.4,3.4
		c0.5,1.2,1,2.4,1.5,3.8c0.5,1.3,1,2.8,1.6,4.3H320.6z M318.7,448.9c-0.5-1.2-0.9-2.4-1.3-3.6c-0.4-1.2-0.9-2.3-1.4-3.3
		c-0.5,1.1-1,2.2-1.4,3.3c-0.4,1.2-0.9,2.3-1.3,3.6H318.7z M314.7,434.6l2.7,3.3l-1,0.9l-3-2.9L314.7,434.6z"/>
	<path class="st2" d="M336.2,439.5c2.1,0,3.6,0.4,4.8,1.2c1.1,0.8,1.7,2,1.7,3.5c0,0.8-0.2,1.6-0.5,2.2s-0.7,1.1-1.3,1.5
		c-0.6,0.4-1.3,0.6-2.1,0.8c-0.8,0.2-1.7,0.3-2.8,0.3h-1.6v5.4h-2.1v-14.5c0.6-0.1,1.2-0.2,1.9-0.3
		C334.9,439.5,335.6,439.5,336.2,439.5z M336.3,441.3c-0.9,0-1.5,0-2,0.1v5.8h1.5c0.7,0,1.3,0,1.9-0.1c0.6-0.1,1-0.2,1.4-0.5
		s0.7-0.5,0.9-0.9s0.3-0.9,0.3-1.5c0-0.6-0.1-1-0.3-1.4c-0.2-0.4-0.5-0.7-0.9-0.9c-0.4-0.2-0.8-0.4-1.3-0.5
		C337.4,441.3,336.9,441.3,336.3,441.3z"/>
	<path class="st2" d="M355.2,454.3c-0.2-0.6-0.5-1.3-0.7-1.9c-0.2-0.6-0.4-1.2-0.7-1.9h-6.7l-1.3,3.8h-2.1c0.6-1.6,1.1-3,1.6-4.3
		c0.5-1.3,1-2.6,1.5-3.8c0.5-1.2,0.9-2.3,1.4-3.4c0.5-1.1,1-2.2,1.5-3.2h1.9c0.5,1.1,1,2.1,1.5,3.2s0.9,2.2,1.4,3.4
		c0.5,1.2,1,2.4,1.5,3.8c0.5,1.3,1,2.8,1.6,4.3H355.2z M353.3,448.9c-0.5-1.2-0.9-2.4-1.3-3.6c-0.4-1.2-0.9-2.3-1.4-3.3
		c-0.5,1.1-1,2.2-1.4,3.3c-0.4,1.2-0.9,2.3-1.3,3.6H353.3z"/>
	<path class="st2" d="M360.7,439.6h2.1v14.7h-2.1V439.6z"/>
	<path class="st2" d="M377.7,454.3c-0.3-0.5-0.7-1.1-1.1-1.8c-0.4-0.7-0.8-1.3-1.3-2c-0.5-0.7-1-1.4-1.5-2.1c-0.5-0.7-1-1.4-1.5-2.1
		c-0.5-0.7-1-1.3-1.4-1.9s-0.9-1.1-1.3-1.6v11.5h-2v-14.7h1.6c0.7,0.7,1.4,1.5,2.1,2.5c0.8,0.9,1.5,1.9,2.2,2.9c0.7,1,1.4,2,2.1,2.9
		c0.7,1,1.2,1.8,1.7,2.6v-10.9h2v14.7H377.7z"/>
	<path class="st2" d="M394.5,439.5c2.1,0,3.6,0.4,4.8,1.2c1.1,0.8,1.7,2,1.7,3.5c0,0.8-0.2,1.6-0.5,2.2s-0.7,1.1-1.3,1.5
		c-0.6,0.4-1.3,0.6-2.1,0.8c-0.8,0.2-1.7,0.3-2.8,0.3h-1.6v5.4h-2.1v-14.5c0.6-0.1,1.2-0.2,1.9-0.3
		C393.2,439.5,393.9,439.5,394.5,439.5z M394.6,441.3c-0.9,0-1.5,0-2,0.1v5.8h1.5c0.7,0,1.3,0,1.9-0.1c0.6-0.1,1-0.2,1.4-0.5
		s0.7-0.5,0.9-0.9s0.3-0.9,0.3-1.5c0-0.6-0.1-1-0.3-1.4c-0.2-0.4-0.5-0.7-0.9-0.9c-0.4-0.2-0.8-0.4-1.3-0.5
		C395.7,441.3,395.2,441.3,394.6,441.3z"/>
	<path class="st2" d="M410.2,454.6c-1,0-1.8-0.1-2.5-0.4c-0.7-0.3-1.3-0.7-1.7-1.2c-0.5-0.5-0.8-1.1-1-1.8c-0.2-0.7-0.3-1.5-0.3-2.3
		v-9.2h2.1v9c0,1.5,0.3,2.5,1,3.2c0.7,0.7,1.5,1,2.5,1c0.5,0,1-0.1,1.4-0.2c0.4-0.2,0.8-0.4,1.1-0.8c0.3-0.3,0.6-0.8,0.7-1.3
		c0.2-0.5,0.3-1.2,0.3-1.9v-9h2.1v9.2c0,0.8-0.1,1.6-0.3,2.3c-0.2,0.7-0.6,1.3-1,1.8c-0.5,0.5-1,0.9-1.7,1.2
		C412,454.5,411.1,454.6,410.2,454.6z"/>
	<path class="st2" d="M424.5,454.5c-0.3,0-0.6,0-1,0c-0.3,0-0.7,0-1-0.1s-0.7-0.1-1-0.1c-0.3,0-0.7-0.1-0.9-0.2v-14.2
		c0.3-0.1,0.6-0.1,0.9-0.2c0.3,0,0.7-0.1,1-0.1s0.7,0,1-0.1c0.3,0,0.7,0,1,0c0.8,0,1.6,0.1,2.4,0.2c0.7,0.1,1.4,0.3,1.9,0.6
		c0.5,0.3,1,0.7,1.3,1.2c0.3,0.5,0.5,1.1,0.5,1.8c0,0.8-0.2,1.5-0.6,2s-0.9,0.9-1.5,1.2c0.9,0.3,1.5,0.7,2.1,1.2
		c0.5,0.6,0.8,1.3,0.8,2.3c0,1.5-0.5,2.6-1.6,3.3C428.6,454.1,426.9,454.5,424.5,454.5z M422.6,445.8h2.2c0.5,0,1,0,1.4-0.1
		c0.5-0.1,0.8-0.2,1.2-0.4s0.6-0.4,0.8-0.7c0.2-0.3,0.3-0.7,0.3-1.1c0-0.4-0.1-0.8-0.3-1.1c-0.2-0.3-0.5-0.5-0.8-0.7
		c-0.3-0.2-0.8-0.3-1.2-0.4c-0.5-0.1-1-0.1-1.5-0.1c-0.5,0-0.9,0-1.2,0c-0.3,0-0.6,0-0.8,0.1V445.8z M422.6,447.5v5.2
		c0.2,0,0.3,0,0.6,0c0.2,0,0.4,0,0.6,0s0.5,0,0.9,0c0.6,0,1.2,0,1.7-0.1c0.5-0.1,1-0.2,1.4-0.4s0.7-0.5,1-0.8
		c0.2-0.4,0.4-0.8,0.4-1.3c0-0.5-0.1-0.9-0.3-1.2s-0.4-0.6-0.8-0.8c-0.3-0.2-0.8-0.3-1.2-0.4s-1-0.1-1.6-0.1H422.6z"/>
	<path class="st2" d="M444.3,452.5v1.8h-8.8v-14.7h2.1v12.9H444.3z"/>
	<path class="st2" d="M447.8,439.6h2.1v14.7h-2.1V439.6z"/>
	<path class="st2" d="M461,454.6c-1,0-2-0.2-2.8-0.5c-0.8-0.3-1.6-0.8-2.2-1.5s-1.1-1.5-1.4-2.4s-0.5-2-0.5-3.3
		c0-1.2,0.2-2.3,0.6-3.3c0.4-1,0.9-1.8,1.5-2.4c0.6-0.6,1.4-1.1,2.2-1.5c0.8-0.3,1.8-0.5,2.7-0.5c0.6,0,1.2,0,1.6,0.1
		c0.5,0.1,0.9,0.2,1.3,0.3c0.4,0.1,0.7,0.2,0.9,0.3c0.2,0.1,0.4,0.2,0.5,0.3l-0.6,1.7c-0.1-0.1-0.3-0.2-0.6-0.3
		c-0.2-0.1-0.5-0.2-0.8-0.3c-0.3-0.1-0.6-0.2-1-0.2c-0.4-0.1-0.7-0.1-1.1-0.1c-0.8,0-1.5,0.1-2.1,0.4s-1.2,0.7-1.6,1.2
		c-0.4,0.5-0.8,1.1-1,1.9c-0.2,0.7-0.4,1.5-0.4,2.4c0,0.9,0.1,1.7,0.3,2.4s0.5,1.3,0.9,1.9c0.4,0.5,0.9,0.9,1.5,1.2
		c0.6,0.3,1.3,0.4,2.2,0.4c0.9,0,1.7-0.1,2.4-0.3c0.6-0.2,1.1-0.4,1.4-0.5l0.5,1.7c-0.1,0.1-0.3,0.2-0.5,0.3c-0.3,0.1-0.6,0.2-1,0.3
		c-0.4,0.1-0.8,0.2-1.3,0.3S461.6,454.6,461,454.6z"/>
	<path class="st2" d="M469.1,439.6h2.1v14.7h-2.1V439.6z"/>
	<path class="st2" d="M485.9,439.6v1.8h-4.6v12.9h-2.1v-12.9h-4.6v-1.8H485.9z"/>
	<path class="st2" d="M497.8,454.3c-0.2-0.6-0.5-1.3-0.7-1.9c-0.2-0.6-0.4-1.2-0.7-1.9h-6.7l-1.3,3.8h-2.1c0.6-1.6,1.1-3,1.6-4.3
		c0.5-1.3,1-2.6,1.5-3.8c0.5-1.2,0.9-2.3,1.4-3.4c0.5-1.1,1-2.2,1.5-3.2h1.9c0.5,1.1,1,2.1,1.5,3.2s0.9,2.2,1.4,3.4
		c0.5,1.2,1,2.4,1.5,3.8c0.5,1.3,1,2.8,1.6,4.3H497.8z M495.9,448.9c-0.5-1.2-0.9-2.4-1.3-3.6c-0.4-1.2-0.9-2.3-1.4-3.3
		c-0.5,1.1-1,2.2-1.4,3.3c-0.4,1.2-0.9,2.3-1.3,3.6H495.9z"/>
	<path class="st2" d="M503.3,439.6h2.1v14.7h-2.1V439.6z"/>
	<path class="st2" d="M517.5,448.2c0.2,0.3,0.5,0.7,0.9,1.1s0.7,1,1.1,1.5c0.4,0.6,0.7,1.1,1.1,1.7c0.4,0.6,0.7,1.2,0.9,1.8h-2.2
		c-0.3-0.5-0.6-1.1-0.9-1.6c-0.3-0.6-0.7-1.1-1-1.6s-0.7-1-1-1.4c-0.3-0.4-0.6-0.8-0.9-1.1c-0.2,0-0.4,0-0.6,0c-0.2,0-0.4,0-0.6,0
		h-1.8v5.7h-2.1v-14.5c0.6-0.1,1.2-0.2,1.9-0.3c0.7,0,1.4-0.1,2-0.1c2.1,0,3.6,0.4,4.7,1.2c1.1,0.8,1.6,1.9,1.6,3.5
		c0,1-0.3,1.8-0.8,2.5C519.3,447.3,518.5,447.8,517.5,448.2z M514.4,441.3c-0.9,0-1.5,0-2,0.1v5.5h1.5c0.7,0,1.3,0,1.9-0.1
		c0.6-0.1,1-0.2,1.4-0.4c0.4-0.2,0.7-0.5,0.9-0.8s0.3-0.8,0.3-1.4c0-0.6-0.1-1-0.3-1.4c-0.2-0.4-0.5-0.7-0.9-0.9s-0.8-0.4-1.3-0.4
		C515.5,441.3,514.9,441.3,514.4,441.3z"/>
	<path class="st2" d="M524.9,454.3v-14.7h9v1.8H527v4.4h6.1v1.7H527v5.1h7.4v1.8H524.9z"/>
	<path class="st2" d="M541.7,452.9c2.1,0,3.2-0.7,3.2-2.2c0-0.5-0.1-0.8-0.3-1.2c-0.2-0.3-0.4-0.6-0.8-0.8s-0.7-0.4-1.1-0.6
		c-0.4-0.2-0.9-0.3-1.3-0.5c-0.5-0.2-1-0.4-1.5-0.6s-0.9-0.5-1.3-0.8c-0.4-0.3-0.6-0.7-0.8-1.1c-0.2-0.4-0.3-1-0.3-1.6
		c0-1.3,0.4-2.3,1.3-3c0.9-0.7,2.1-1.1,3.6-1.1c0.9,0,1.7,0.1,2.4,0.3c0.7,0.2,1.3,0.4,1.6,0.6l-0.7,1.7c-0.3-0.2-0.7-0.4-1.3-0.5
		c-0.6-0.2-1.3-0.3-2-0.3c-0.4,0-0.8,0-1.1,0.1c-0.3,0.1-0.6,0.2-0.9,0.4c-0.3,0.2-0.5,0.4-0.6,0.6c-0.1,0.3-0.2,0.6-0.2,0.9
		c0,0.4,0.1,0.7,0.2,1c0.2,0.3,0.4,0.5,0.7,0.7c0.3,0.2,0.6,0.4,1,0.6c0.4,0.2,0.8,0.3,1.2,0.5c0.6,0.3,1.2,0.5,1.7,0.8
		c0.5,0.3,1,0.6,1.4,0.9c0.4,0.4,0.7,0.8,0.9,1.3c0.2,0.5,0.3,1.1,0.3,1.8c0,1.3-0.5,2.3-1.4,3s-2.3,1-4,1c-0.6,0-1.1,0-1.6-0.1
		c-0.5-0.1-0.9-0.2-1.3-0.3s-0.7-0.2-1-0.3c-0.3-0.1-0.5-0.2-0.6-0.3l0.6-1.7c0.3,0.2,0.8,0.4,1.5,0.6
		C539.9,452.8,540.8,452.9,541.7,452.9z"/>
</g>
<g>
	<path class="st2" d="M300.2,375.1c-3.7,0-8.4,0.4-14,1.2c0.7,2.7,0.5,6.4,0.5,6.4l0,0c-0.1,2.7-1.2,8.7-3.2,18
		c-2.2,9.7-3.4,15.8-3.7,18.2c0.3,0,0.8,0.1,1.6,0.1c3.6,0,6.3-0.4,8-1.3c0.2-2.9,1.1-8,2.8-15.3h0l1.1-4.8h0
		c1.8-7.8,3-13.9,3.7-18.2c1.1-0.3,2.1-0.4,2.9-0.4c1.2,0,2.1,0.5,2.7,1.6s0.9,2.4,0.9,4c0,4-0.8,7.1-2.4,9.5
		c-1.2,1.7-2.7,2.8-4.7,3.3c-0.6,1.6-0.9,3.4-1.1,4.4c5.8-0.1,10.1-1.6,13.1-4.7c3-3.1,4.5-7,4.5-11.5
		C312.9,378.6,308.7,375.1,300.2,375.1z"/>
	<path class="st2" d="M453,385.7c-1.4-1-2.7-2-3.9-3c-0.5-0.4-1.1-0.8-1.9-1.4c-0.8-0.6-1.4-1-1.9-1.4c-0.5-0.3-1.1-0.7-1.7-1.2
		c-2.5-1.7-4.3-2.6-5.4-2.6c-1.3,0-2.8,1.9-4.3,5.7c6.9,2.2,12.9,4.3,17.9,6.2L453,385.7z"/>
	<path class="st2" d="M263.7,413.1c-1.6,0.8-2.5,1.2-2.7,1.2c-0.3,0-0.5-0.8-0.5-2.4c0-1.6,0.3-4.2,0.9-7.9
		c0.6-3.7,1.4-7.2,2.5-10.6c-3.2-1.1-5.8-1.7-7.7-1.7c-0.4,1-0.6,1.5-0.7,1.6c-2.1-1.2-4.3-1.8-6.6-1.8c-3.2,0-5.9,1.6-8.1,4.7
		c-2.2,3.2-3.4,7.5-3.4,13c0,3.5,0.7,6.1,2.2,7.7c1.4,1.6,3.2,2.5,5.3,2.5c2.1,0,4.5-1.1,7.1-3.4c0.4,2.3,1.9,3.4,4.4,3.4
		c1.3,0,2.8-0.4,4.4-1.3c1.6-0.8,2.7-1.5,3.3-2c0.6-0.5,1.1-0.9,1.4-1.2l-1.1-2.1L263.7,413.1z M251.8,413c-1.2,0.8-2.3,1.2-3.3,1.2
		c-1.5,0-2.3-1.7-2.3-5.2c0-3.5,0.5-6.6,1.6-9.5c1-2.9,2.3-4.3,3.8-4.3c0.9,0,1.9,0.3,3.1,0.8C253.1,401.5,252.1,407.2,251.8,413z"
		/>
	<path class="st2" d="M356.7,393.4c-1.6-1.2-3.8-1.9-6.5-1.9c-4.2,0-7.6,1.5-10.3,4.5c-1,1.1-1.7,2.3-2.4,3.6
		c-1.5,0.3-3,0.5-4.4,0.5c0-6.1-1.6-9.1-4.8-9.1c-0.9,0-1.6,0.2-2.3,0.6l-2.2-0.1c-4.3,0-7.6,1.6-10.1,4.9
		c-2.4,3.3-3.6,7.2-3.6,11.7c0,3.6,0.8,6.3,2.4,8.3c1.6,2,3.8,3,6.6,3c3.7,0,6.8-1.6,9.1-4.7c2.4-3.2,3.9-6.9,4.7-11.2l1.2-0.2
		c0.9-0.2,1.6-0.3,2.4-0.5c-0.4,1.6-0.6,3.3-0.6,5.2c0,3.5,0.8,6.3,2.4,8.4s4,3.1,7.2,3.1c1.3,0,2.6-0.2,4-0.6
		c1.3-0.4,2.5-0.9,3.3-1.3s1.8-1.1,2.8-1.8c1-0.7,1.6-1.3,2-1.8l-1.4-1.9l-0.9,0.7c-0.7,0.5-1.5,0.9-2.6,1.4
		c-1.1,0.5-2.1,0.7-3.1,0.7c-3,0-4.5-2.5-4.5-7.4c0-3.1,0.5-6,1.5-8.7c1-2.7,2.3-4.1,3.9-4.1c0.7,0,1.2,0.1,1.5,0.4l-0.9,5.4
		c0.7,0.7,1.7,1.2,3.1,1.7c1.3,0.5,2.5,0.7,3.6,0.7c1.1-1.3,1.7-2.9,1.7-4.7C359.1,396.1,358.3,394.6,356.7,393.4z M326.9,410.8
		c-1.4,2.2-2.9,3.3-4.6,3.3c-2.2,0-3.4-2.2-3.4-6.6c0-3.1,0.4-5.9,1.3-8.3c0.9-2.4,1.9-3.9,2.9-4.6c0.1-0.1,0.3-0.1,0.6-0.1
		c0.2,0,0.4,0,0.6,0.1l-0.3,0.6c-0.5,1.1-0.8,2.4-0.8,3.7c0,3.3,2.2,4.9,6.6,4.9C329.2,406.3,328.3,408.6,326.9,410.8z"/>
	<path class="st2" d="M236.1,376.7c0-1.4-0.2-2.4-0.6-3c-2.8,0-5.8,0.6-8.9,1.7l0.4,2.7c0,4-1,10.6-3,19.8c-2,9.1-3,14.5-3,16.2
		c0,1.7,0.5,3,1.4,4c0.9,0.9,2.1,1.4,3.5,1.4c1.4,0,3.1-0.5,5.1-1.4c2-0.9,3.7-2,5.1-3.1l-1.1-2.1l-4.3,1.5c-0.4,0-0.6-0.8-0.6-2.3
		c0-1.5,1-7,3.1-16.4C235.1,386.3,236.1,379.9,236.1,376.7z"/>
	<path class="st2" d="M576.7,412.8l-0.7,0.4c-1.5,0.8-2.3,1.2-2.6,1.2c-0.3,0-0.5-0.6-0.5-1.9s0.5-3.8,1.4-7.6
		c0.9-3.8,1.4-6.4,1.4-7.9s-0.4-2.8-1.3-3.8c-0.9-1-2.1-1.5-3.5-1.5c-2.5,0-5.5,1.4-9,4.1c0-1.8-0.3-3.1-0.9-3.8
		c-4.9,0-8.4,0.3-10.6,0.9l-0.1,0.8l0.6,0.7c1.1,1.5,1.7,2.9,1.7,4.3c0,0.7-0.6,3.8-1.7,9.3c-1.2,5.4-1.7,9.1-1.7,11h1.2
		c3.7,0,6.3-0.3,7.7-0.9c0-2.7,0.7-7.2,2.1-13.6c0.7-3,1.1-4.8,1.2-5.5c1.7-1,3.2-1.5,4.4-1.5c0.7,0,1,0.6,1,1.7s-0.5,3.6-1.4,7.4
		c-0.9,3.8-1.4,6.5-1.4,7.9c0,3.4,1.5,5.1,4.5,5.1c1.3,0,2.8-0.4,4.4-1.3c1.7-0.8,2.8-1.5,3.4-2c0.6-0.5,1.1-0.9,1.5-1.2
		L576.7,412.8z"/>
	<path class="st2" d="M529,413.1c-1.6,0.8-2.5,1.2-2.7,1.2c-0.3,0-0.5-0.8-0.5-2.4c0-1.6,0.3-4.2,0.9-7.9c0.6-3.7,1.4-7.2,2.5-10.6
		c-3.2-1.1-5.8-1.7-7.7-1.7c-0.4,1-0.6,1.5-0.7,1.6c-2.1-1.2-4.3-1.8-6.6-1.8c-3.2,0-5.9,1.6-8.1,4.7c-2.2,3.2-3.4,7.5-3.4,13
		c0,3.5,0.7,6.1,2.2,7.7c1.4,1.6,3.2,2.5,5.3,2.5c2.1,0,4.5-1.1,7.1-3.4c0.4,2.3,1.9,3.4,4.4,3.4c1.3,0,2.8-0.4,4.4-1.3
		c1.6-0.8,2.7-1.5,3.3-2c0.6-0.5,1.1-0.9,1.4-1.2l-1.1-2.1L529,413.1z M517.2,413c-1.2,0.8-2.3,1.2-3.3,1.2c-1.5,0-2.3-1.7-2.3-5.2
		c0-3.5,0.5-6.6,1.6-9.5c1-2.9,2.3-4.3,3.8-4.3c0.9,0,1.9,0.3,3.1,0.8C518.4,401.5,517.4,407.2,517.2,413z"/>
	<path class="st2" d="M544.7,413.1c-1.6,0.8-2.6,1.2-2.8,1.2c-0.4,0-0.6-0.6-0.6-1.9s0.6-4,1.7-8.2c1.1-4.2,1.7-7.1,1.7-8.9
		c0-1.7-0.3-2.9-0.8-3.5c-4.9,0-8.4,0.3-10.5,0.9l-0.1,0.8l0.6,0.7c1.1,1.5,1.6,3.1,1.6,4.8c0,1.1-0.5,3.6-1.5,7.4
		c-1,3.8-1.5,6.5-1.5,8c0,1.5,0.4,2.7,1.2,3.6c0.8,0.9,1.9,1.3,3.4,1.3c1.4,0,3-0.4,4.7-1.3c1.7-0.8,2.8-1.5,3.4-2
		c0.6-0.5,1.1-0.9,1.5-1.2l-1-2.1L544.7,413.1z"/>
	<path class="st2" d="M542,376.8c-1.5,0-2.8,0.5-3.9,1.5c-1.1,1-1.7,2.2-1.7,3.6c0,1.3,0.4,2.4,1.2,3.2c0.8,0.8,1.9,1.2,3.4,1.2
		s2.7-0.5,3.9-1.5c1.2-1,1.7-2.2,1.7-3.5c0-1.3-0.4-2.4-1.2-3.2C544.7,377.2,543.5,376.8,542,376.8z"/>
	<path class="st2" d="M411.6,393.3c-1.6-1.2-3.5-1.8-5.9-1.8c-3.9,0-7.4,1.5-10.5,4.4c-3.1,3-4.6,7-4.6,12.1c0,3.6,0.8,6.3,2.5,8.3
		c1.6,2,3.9,3,6.7,3s5.4-0.7,7.8-2c0.9-0.5,1.8-1.1,2.8-1.8c1-0.7,1.6-1.3,2-1.8l-1.5-2l-0.9,0.7c-0.6,0.5-1.5,1-2.6,1.5
		c-1.1,0.5-2.1,0.7-3.1,0.7c-2.9,0-4.4-1.9-4.7-5.8l0,0c-0.2-1.9,0-3.9,0-3.9l0,0c0.1-2,0.5-4.2,1.2-6.5c0.8-2.6,2-4,3.6-4
		c1.3,0,2,1.1,2,3.3c0,2.2-0.6,4-1.8,5.4c-0.6,0.7-1.3,1.2-2.1,1.7c-0.5,1.6-0.5,2.9-0.5,3.6c2.2-0.4,4.6-1.3,7.2-2.6
		c1.4-0.7,2.6-1.8,3.6-3.1c1-1.3,1.5-3,1.5-5S413.2,394.5,411.6,393.3z"/>
	<path class="st2" d="M490.5,375.1c-3.7,0-8.4,0.4-14,1.2c0.5,2.1,0.5,4.9,0.5,5.9c0,0,0,0,0,0.1c0,2.5-1.1,8.6-3.2,18.3
		c-2.2,9.7-3.4,15.8-3.7,18.2c0.3,0,0.8,0.1,1.6,0.1c3.6,0,6.3-0.4,8-1.3c0.2-3,1.2-8.3,2.9-16c0,0,0,0,0,0l0.9-4h0
		c1.8-7.8,3-13.9,3.7-18.2c1.1-0.3,2.1-0.4,2.9-0.4c1.2,0,2.1,0.5,2.7,1.6c0.6,1,0.9,2.4,0.9,4c0,4-0.8,7.1-2.4,9.5
		c-1.2,1.7-2.7,2.8-4.7,3.3c-0.5,1.6-0.9,3.4-1,4.4c5.8-0.1,10.1-1.6,13.1-4.7c3-3.1,4.5-7,4.5-11.5
		C503.1,378.6,498.9,375.1,490.5,375.1z"/>
	<path class="st2" d="M387,413.2c-1.4,0.7-2.2,1.1-2.6,1.1c-0.3,0-0.5-0.7-0.5-2c0-1.3,0.5-3.8,1.4-7.5c0.9-3.7,1.4-6.3,1.4-7.9
		c0-1.6-0.4-2.9-1.2-3.9c-0.8-1-2-1.5-3.5-1.5c-2.5,0-5.4,1.2-8.7,3.6c2.3-9.7,3.4-15.9,3.4-18.6c0-1.5-0.2-2.5-0.6-2.8
		c-2.8,0-5.8,0.6-9,1.7c0.2,0.6,0.4,1.5,0.4,2.9c0,3.6-1.2,10.6-3.6,20.8c-2.4,10.3-3.6,16.3-3.6,18c0,0.5,0,1.1,0.1,1.8
		c4.1,0,7-0.3,8.8-1c0-2.9,1.1-9.4,3.4-19.2c1.6-0.9,2.9-1.3,4-1.3c0.9,0,1.3,0.5,1.3,1.6s-0.5,3.5-1.4,7.5
		c-0.9,3.9-1.4,6.7-1.4,8.1c0,1.5,0.4,2.7,1.2,3.6c0.8,0.9,1.9,1.3,3.3,1.3c1.4,0,2.9-0.4,4.5-1.2c1.6-0.8,2.8-1.5,3.4-2
		c0.6-0.5,1.1-0.9,1.5-1.2l-1.1-2.1L387,413.2z"/>
	<path class="st2" d="M453.9,413.1c-1.6,0.8-2.5,1.2-2.7,1.2c-0.3,0-0.5-0.8-0.5-2.4c0-1.6,0.3-4.2,0.9-7.9
		c0.6-3.7,1.4-7.2,2.5-10.6c-3.2-1.1-5.8-1.7-7.7-1.7c-0.4,1-0.6,1.5-0.7,1.6c-2.1-1.2-4.3-1.8-6.6-1.8c-3.2,0-5.9,1.6-8.1,4.7
		c-2.2,3.2-3.4,7.5-3.4,13c0,3.5,0.7,6.1,2.2,7.7c1.4,1.6,3.2,2.5,5.3,2.5c2.1,0,4.5-1.1,7.1-3.4c0.4,2.3,1.9,3.4,4.4,3.4
		c1.3,0,2.8-0.4,4.4-1.3c1.6-0.8,2.7-1.5,3.3-2c0.6-0.5,1.1-0.9,1.4-1.2l-1.1-2.1L453.9,413.1z M442.1,413c-1.2,0.8-2.3,1.2-3.3,1.2
		c-1.5,0-2.3-1.7-2.3-5.2c0-3.5,0.5-6.6,1.6-9.5c1-2.9,2.3-4.3,3.8-4.3c0.9,0,1.9,0.3,3.1,0.8C443.3,401.5,442.3,407.2,442.1,413z"
		/>
</g>
</svg>
