<?xml version="1.0" encoding="utf-8"?>
<!-- Generator: Adobe Illustrator 19.2.1, SVG Export Plug-In . SVG Version: 6.00 Build 0)  -->
<svg version="1.1" id="Calque_1" xmlns="http://www.w3.org/2000/svg" xmlns:xlink="http://www.w3.org/1999/xlink" x="0px" y="0px"
	 viewBox="0 0 526 421.3" style="enable-background:new 0 0 526 421.3;" xml:space="preserve">
<style type="text/css">
	.st0{fill:#3C3C3C;}
	.st1{fill:url(#SVGID_1_);}
	.st2{fill:#5BA949;}
	.st3{fill:#97CB64;}
</style>
<g>
	<path class="st0" d="M61.6,410.2c3,0,4.4-1,4.4-3c0-0.6-0.1-1.2-0.4-1.6c-0.3-0.4-0.6-0.8-1.1-1.1c-0.4-0.3-1-0.6-1.5-0.8
		c-0.6-0.2-1.2-0.5-1.8-0.7c-0.7-0.3-1.4-0.5-2.1-0.9s-1.2-0.7-1.7-1.1s-0.9-1-1.2-1.6s-0.4-1.3-0.4-2.2c0-1.8,0.6-3.2,1.8-4.1
		c1.2-1,2.9-1.5,5-1.5c1.2,0,2.3,0.1,3.3,0.4s1.7,0.5,2.2,0.9l-0.9,2.3c-0.4-0.3-1-0.5-1.8-0.7c-0.8-0.2-1.7-0.4-2.8-0.4
		c-0.5,0-1.1,0.1-1.5,0.2c-0.5,0.1-0.9,0.3-1.2,0.5s-0.6,0.5-0.8,0.9s-0.3,0.8-0.3,1.3s0.1,1,0.3,1.4s0.5,0.7,0.9,1s0.8,0.5,1.4,0.8
		c0.5,0.2,1.1,0.5,1.7,0.7c0.9,0.3,1.7,0.7,2.4,1.1c0.7,0.3,1.4,0.8,1.9,1.3s0.9,1.1,1.2,1.7c0.3,0.7,0.4,1.5,0.4,2.4
		c0,1.8-0.6,3.1-1.9,4.1s-3.1,1.4-5.5,1.4c-0.8,0-1.5-0.1-2.2-0.2s-1.3-0.2-1.8-0.4c-0.5-0.1-1-0.3-1.4-0.5s-0.7-0.3-0.9-0.4
		l0.8-2.3c0.4,0.3,1.1,0.5,2,0.8C59.2,410,60.3,410.2,61.6,410.2z"/>
	<path class="st0" d="M87.7,412.2c-0.3-0.9-0.6-1.7-0.9-2.6c-0.3-0.8-0.6-1.7-0.9-2.6h-9.2l-1.8,5.2H72c0.8-2.1,1.5-4.1,2.2-5.9
		c0.7-1.8,1.3-3.5,2-5.2c0.7-1.7,1.3-3.2,1.9-4.7s1.3-3,2-4.4h2.6c0.7,1.5,1.4,2.9,2,4.4s1.3,3,1.9,4.7c0.7,1.6,1.3,3.4,2,5.2
		c0.7,1.8,1.4,3.8,2.2,5.9H87.7z M85.1,404.7c-0.6-1.7-1.2-3.3-1.9-4.9c-0.6-1.6-1.3-3.1-1.9-4.6c-0.7,1.5-1.3,3-1.9,4.6
		s-1.2,3.2-1.8,4.9H85.1z"/>
	<path class="st0" d="M103.4,412.6c-1.4,0-2.7-0.2-3.9-0.7c-1.2-0.5-2.2-1.1-3-2s-1.5-2-1.9-3.3c-0.5-1.3-0.7-2.8-0.7-4.5
		s0.3-3.2,0.8-4.5s1.2-2.4,2.1-3.3s1.9-1.6,3.1-2c1.2-0.5,2.4-0.7,3.7-0.7c0.8,0,1.6,0.1,2.3,0.2c0.7,0.1,1.3,0.3,1.8,0.4
		c0.5,0.2,0.9,0.3,1.2,0.5c0.3,0.2,0.5,0.3,0.6,0.3l-0.8,2.3c-0.2-0.1-0.4-0.2-0.8-0.4c-0.3-0.1-0.7-0.3-1.1-0.4s-0.9-0.2-1.4-0.3
		c-0.5-0.1-1-0.1-1.5-0.1c-1.1,0-2,0.2-2.9,0.6s-1.6,0.9-2.2,1.6s-1.1,1.6-1.4,2.6s-0.5,2.1-0.5,3.4c0,1.2,0.1,2.3,0.4,3.3
		s0.7,1.8,1.3,2.6c0.6,0.7,1.3,1.3,2.1,1.6c0.8,0.4,1.8,0.6,3,0.6c1.3,0,2.4-0.1,3.2-0.4c0.9-0.3,1.5-0.5,1.9-0.7l0.7,2.3
		c-0.1,0.1-0.4,0.2-0.7,0.4c-0.3,0.1-0.8,0.3-1.3,0.4s-1.1,0.3-1.8,0.4C105,412.6,104.2,412.6,103.4,412.6z"/>
	<path class="st0" d="M119.6,410.2c3,0,4.4-1,4.4-3c0-0.6-0.1-1.2-0.4-1.6s-0.6-0.8-1.1-1.1c-0.4-0.3-1-0.6-1.5-0.8
		c-0.6-0.2-1.2-0.5-1.8-0.7c-0.7-0.3-1.4-0.5-2.1-0.9s-1.2-0.7-1.7-1.1s-0.9-1-1.2-1.6c-0.3-0.6-0.4-1.3-0.4-2.2
		c0-1.8,0.6-3.2,1.8-4.1c1.2-1,2.9-1.5,5-1.5c1.2,0,2.3,0.1,3.3,0.4s1.7,0.5,2.2,0.9l-0.9,2.3c-0.4-0.3-1-0.5-1.8-0.7
		s-1.7-0.4-2.8-0.4c-0.5,0-1.1,0.1-1.5,0.2c-0.5,0.1-0.9,0.3-1.2,0.5c-0.3,0.2-0.6,0.5-0.8,0.9c-0.2,0.4-0.3,0.8-0.3,1.3
		s0.1,1,0.3,1.4c0.2,0.4,0.5,0.7,0.9,1s0.8,0.5,1.4,0.8c0.5,0.2,1.1,0.5,1.7,0.7c0.9,0.3,1.7,0.7,2.4,1.1c0.7,0.3,1.4,0.8,1.9,1.3
		s0.9,1.1,1.2,1.7c0.3,0.7,0.4,1.5,0.4,2.4c0,1.8-0.6,3.1-1.9,4.1s-3.1,1.4-5.5,1.4c-0.8,0-1.5-0.1-2.2-0.2s-1.3-0.2-1.8-0.4
		c-0.5-0.1-1-0.3-1.4-0.5s-0.7-0.3-0.9-0.4l0.8-2.3c0.4,0.3,1.1,0.5,2,0.8C117.1,410,118.2,410.2,119.6,410.2z"/>
	<path class="st0" d="M154.1,412.2c-0.3-0.9-0.6-1.7-0.9-2.6c-0.3-0.8-0.6-1.7-0.9-2.6h-9.2l-1.8,5.2h-2.9c0.8-2.1,1.5-4.1,2.2-5.9
		c0.7-1.8,1.3-3.5,2-5.2c0.7-1.6,1.3-3.2,1.9-4.7c0.6-1.5,1.3-3,2-4.4h2.6c0.7,1.5,1.4,2.9,2,4.4s1.3,3,1.9,4.7
		c0.7,1.6,1.3,3.4,2,5.2c0.7,1.8,1.4,3.8,2.2,5.9H154.1z M151.5,404.7c-0.6-1.7-1.2-3.3-1.9-4.9c-0.6-1.6-1.3-3.1-1.9-4.6
		c-0.7,1.5-1.3,3-1.9,4.6c-0.6,1.6-1.2,3.2-1.8,4.9H151.5z M146,385l3.7,4.5l-1.4,1.2l-4.1-4L146,385z"/>
	<path class="st0" d="M175.6,391.8c2.8,0,5,0.5,6.5,1.6s2.3,2.7,2.3,4.8c0,1.2-0.2,2.2-0.6,3c-0.4,0.8-1,1.5-1.8,2s-1.7,0.9-2.9,1.1
		c-1.1,0.2-2.4,0.4-3.8,0.4H173v7.5h-2.8v-19.9c0.8-0.2,1.7-0.3,2.7-0.4S174.8,391.8,175.6,391.8z M175.8,394.2
		c-1.2,0-2.1,0-2.8,0.1v7.9h2.1c1,0,1.8-0.1,2.6-0.2s1.4-0.3,2-0.6c0.5-0.3,0.9-0.7,1.2-1.2s0.4-1.2,0.4-2s-0.2-1.4-0.5-1.9
		s-0.7-0.9-1.2-1.2c-0.5-0.3-1.1-0.5-1.8-0.6C177.3,394.3,176.6,394.2,175.8,394.2z"/>
	<path class="st0" d="M201.7,412.2c-0.3-0.9-0.6-1.7-0.9-2.6c-0.3-0.8-0.6-1.7-0.9-2.6h-9.2l-1.8,5.2H186c0.8-2.1,1.5-4.1,2.2-5.9
		s1.3-3.5,2-5.2c0.7-1.6,1.3-3.2,1.9-4.7c0.6-1.5,1.3-3,2-4.4h2.6c0.7,1.5,1.4,2.9,2,4.4s1.3,3,1.9,4.7c0.7,1.6,1.3,3.4,2,5.2
		c0.7,1.8,1.4,3.8,2.2,5.9H201.7z M199.1,404.7c-0.6-1.7-1.2-3.3-1.9-4.9c-0.6-1.6-1.3-3.1-1.9-4.6c-0.7,1.5-1.3,3-1.9,4.6
		c-0.6,1.6-1.2,3.2-1.8,4.9H199.1z"/>
	<path class="st0" d="M209.3,392h2.8v20.2h-2.8V392z"/>
	<path class="st0" d="M232.8,412.2c-0.4-0.7-0.9-1.5-1.5-2.4s-1.2-1.8-1.8-2.8s-1.3-1.9-2-2.9s-1.4-1.9-2.1-2.9
		c-0.7-0.9-1.3-1.8-2-2.6c-0.6-0.8-1.2-1.5-1.8-2.2v15.8h-2.8V392h2.2c0.9,1,1.9,2.1,2.9,3.4s2.1,2.6,3.1,4s2,2.7,2.9,4
		s1.7,2.5,2.3,3.5v-15h2.8v20.2h-2.2V412.2z"/>
	<path class="st0" d="M255.8,391.8c2.8,0,5,0.5,6.5,1.6s2.3,2.7,2.3,4.8c0,1.2-0.2,2.2-0.6,3s-1,1.5-1.8,2c-0.8,0.5-1.7,0.9-2.9,1.1
		c-1.1,0.2-2.4,0.4-3.8,0.4h-2.2v7.5h-2.8v-19.9c0.8-0.2,1.7-0.3,2.7-0.4C254,391.8,254.9,391.8,255.8,391.8z M256,394.2
		c-1.2,0-2.1,0-2.8,0.1v7.9h2.1c1,0,1.8-0.1,2.6-0.2c0.8-0.1,1.4-0.3,2-0.6c0.5-0.3,0.9-0.7,1.2-1.2s0.4-1.2,0.4-2s-0.2-1.4-0.5-1.9
		s-0.7-0.9-1.2-1.2c-0.5-0.3-1.1-0.5-1.8-0.6C257.5,394.3,256.8,394.2,256,394.2z"/>
	<path class="st0" d="M277.4,412.6c-1.3,0-2.5-0.2-3.4-0.6c-1-0.4-1.8-1-2.4-1.7s-1.1-1.6-1.4-2.5c-0.3-1-0.5-2-0.5-3.2V392h2.8
		v12.4c0,2,0.4,3.5,1.3,4.4s2.1,1.4,3.5,1.4c0.7,0,1.4-0.1,2-0.3c0.6-0.2,1.1-0.6,1.5-1c0.4-0.5,0.8-1.1,1-1.8
		c0.2-0.7,0.3-1.6,0.3-2.6V392h2.8v12.7c0,1.1-0.2,2.2-0.5,3.2s-0.8,1.8-1.4,2.5s-1.4,1.3-2.4,1.7
		C279.9,412.4,278.7,412.6,277.4,412.6z"/>
	<path class="st0" d="M297.2,412.4c-0.4,0-0.9,0-1.3,0c-0.5,0-1,0-1.4-0.1c-0.5,0-0.9-0.1-1.4-0.1c-0.5-0.1-0.9-0.1-1.3-0.2v-19.6
		c0.4-0.1,0.8-0.2,1.3-0.2c0.5-0.1,0.9-0.1,1.4-0.1s0.9-0.1,1.4-0.1s0.9,0,1.3,0c1.2,0,2.3,0.1,3.3,0.3c1,0.2,1.9,0.5,2.7,0.9
		c0.7,0.4,1.3,1,1.8,1.6c0.4,0.7,0.6,1.5,0.6,2.5c0,1.1-0.3,2-0.8,2.7s-1.2,1.2-2.1,1.6c1.2,0.4,2.1,0.9,2.8,1.7s1.1,1.8,1.1,3.2
		c0,2-0.7,3.5-2.2,4.6C302.7,411.9,300.4,412.4,297.2,412.4z M294.5,400.5h3c0.7,0,1.4,0,2-0.1s1.2-0.3,1.6-0.5
		c0.5-0.3,0.8-0.6,1.1-1c0.3-0.4,0.4-0.9,0.4-1.5s-0.1-1.1-0.4-1.5s-0.6-0.7-1.1-1c-0.5-0.2-1-0.4-1.7-0.5c-0.6-0.1-1.3-0.2-2-0.2
		s-1.3,0-1.7,0c-0.4,0-0.8,0-1.1,0.1L294.5,400.5L294.5,400.5z M294.5,402.8v7.1c0.2,0,0.5,0,0.8,0.1c0.3,0,0.5,0,0.9,0
		c0.3,0,0.7,0,1.2,0c0.8,0,1.6-0.1,2.4-0.2c0.7-0.1,1.4-0.3,2-0.6c0.6-0.3,1-0.7,1.4-1.1c0.3-0.5,0.5-1.1,0.5-1.8
		c0-0.7-0.1-1.2-0.4-1.7s-0.6-0.8-1.1-1.1c-0.5-0.3-1-0.5-1.7-0.6s-1.4-0.2-2.2-0.2h-3.8V402.8z"/>
	<path class="st0" d="M324.4,409.7v2.5h-12.2V392h2.8v17.8L324.4,409.7L324.4,409.7z"/>
	<path class="st0" d="M329.1,392h2.8v20.2h-2.8V392z"/>
	<path class="st0" d="M347.4,412.6c-1.4,0-2.7-0.2-3.9-0.7c-1.2-0.5-2.2-1.1-3-2s-1.5-2-1.9-3.3c-0.5-1.3-0.7-2.8-0.7-4.5
		s0.3-3.2,0.8-4.5s1.2-2.4,2.1-3.3s1.9-1.6,3.1-2s2.4-0.7,3.7-0.7c0.8,0,1.6,0.1,2.3,0.2c0.7,0.1,1.3,0.3,1.7,0.4
		c0.5,0.2,0.9,0.3,1.2,0.5c0.3,0.2,0.5,0.3,0.6,0.3l-0.8,2.3c-0.2-0.1-0.4-0.2-0.8-0.4c-0.3-0.1-0.7-0.3-1.1-0.4s-0.9-0.2-1.4-0.3
		c-0.5-0.1-1-0.1-1.5-0.1c-1.1,0-2,0.2-2.9,0.6s-1.6,0.9-2.2,1.6s-1.1,1.6-1.4,2.6s-0.5,2.1-0.5,3.4c0,1.2,0.1,2.3,0.4,3.3
		s0.7,1.8,1.3,2.6c0.6,0.7,1.3,1.3,2.1,1.6c0.8,0.4,1.8,0.6,3,0.6c1.3,0,2.4-0.1,3.2-0.4c0.9-0.3,1.5-0.5,1.9-0.7l0.7,2.3
		c-0.1,0.1-0.4,0.2-0.7,0.4c-0.3,0.1-0.8,0.3-1.3,0.4s-1.1,0.3-1.8,0.4C349,412.6,348.2,412.6,347.4,412.6z"/>
	<path class="st0" d="M358.5,392h2.8v20.2h-2.8V392z"/>
	<path class="st0" d="M381.6,392v2.4h-6.4v17.8h-2.8v-17.8H366V392H381.6z"/>
	<path class="st0" d="M398,412.2c-0.3-0.9-0.6-1.7-0.9-2.6c-0.3-0.8-0.6-1.7-0.9-2.6H387l-1.8,5.2h-2.9c0.8-2.1,1.5-4.1,2.2-5.9
		s1.3-3.5,2-5.2c0.7-1.6,1.3-3.2,1.9-4.7s1.3-3,2-4.4h2.6c0.7,1.5,1.4,2.9,2,4.4s1.3,3,1.9,4.7c0.7,1.6,1.3,3.4,2,5.2
		c0.7,1.8,1.4,3.8,2.2,5.9H398z M395.4,404.7c-0.6-1.7-1.2-3.3-1.9-4.9c-0.6-1.6-1.3-3.1-1.9-4.6c-0.7,1.5-1.3,3-1.9,4.6
		s-1.2,3.2-1.8,4.9H395.4z"/>
	<path class="st0" d="M405.6,392h2.8v20.2h-2.8V392z"/>
	<path class="st0" d="M425.1,403.7c0.3,0.4,0.7,0.9,1.2,1.5s1,1.3,1.5,2.1c0.5,0.8,1,1.6,1.5,2.4s0.9,1.6,1.3,2.4h-3.1
		c-0.4-0.7-0.8-1.5-1.3-2.2c-0.5-0.8-0.9-1.5-1.4-2.2s-0.9-1.3-1.4-1.9s-0.9-1.1-1.2-1.6c-0.3,0-0.5,0-0.8,0s-0.5,0-0.8,0H418v7.9
		h-2.8v-19.9c0.8-0.2,1.7-0.3,2.7-0.4s1.9-0.1,2.7-0.1c2.8,0,5,0.5,6.5,1.6s2.2,2.7,2.2,4.8c0,1.3-0.4,2.5-1.1,3.4
		C427.5,402.6,426.5,403.3,425.1,403.7z M420.8,394.2c-1.2,0-2.1,0-2.8,0.1v7.6h2c1,0,1.8,0,2.6-0.1c0.8-0.1,1.4-0.3,2-0.6
		c0.5-0.3,0.9-0.7,1.2-1.2c0.3-0.5,0.4-1.2,0.4-2s-0.1-1.4-0.4-1.9s-0.7-0.9-1.2-1.2c-0.5-0.3-1.1-0.5-1.8-0.6
		C422.3,394.3,421.5,394.2,420.8,394.2z"/>
	<path class="st0" d="M435.3,412.2V392h12.3v2.4h-9.5v6h8.5v2.4h-8.5v7h10.2v2.4L435.3,412.2L435.3,412.2z"/>
	<path class="st0" d="M458.4,410.2c3,0,4.4-1,4.4-3c0-0.6-0.1-1.2-0.4-1.6s-0.6-0.8-1.1-1.1c-0.4-0.3-1-0.6-1.5-0.8
		c-0.6-0.2-1.2-0.5-1.8-0.7c-0.7-0.3-1.4-0.5-2.1-0.9c-0.7-0.3-1.2-0.7-1.7-1.1s-0.9-1-1.2-1.6c-0.3-0.6-0.4-1.3-0.4-2.2
		c0-1.8,0.6-3.2,1.8-4.1c1.2-1,2.9-1.5,5-1.5c1.2,0,2.3,0.1,3.3,0.4s1.7,0.5,2.2,0.9l-0.9,2.3c-0.4-0.3-1-0.5-1.8-0.7
		s-1.7-0.4-2.8-0.4c-0.5,0-1.1,0.1-1.5,0.2c-0.5,0.1-0.9,0.3-1.2,0.5c-0.3,0.2-0.6,0.5-0.8,0.9c-0.2,0.4-0.3,0.8-0.3,1.3
		s0.1,1,0.3,1.4c0.2,0.4,0.5,0.7,0.9,1s0.8,0.5,1.4,0.8c0.5,0.2,1.1,0.5,1.7,0.7c0.9,0.3,1.7,0.7,2.4,1.1c0.7,0.3,1.4,0.8,1.9,1.3
		s0.9,1.1,1.2,1.7c0.3,0.7,0.4,1.5,0.4,2.4c0,1.8-0.6,3.1-1.9,4.1s-3.1,1.4-5.5,1.4c-0.8,0-1.5-0.1-2.2-0.2s-1.3-0.2-1.8-0.4
		c-0.5-0.1-1-0.3-1.4-0.5s-0.7-0.3-0.9-0.4l0.8-2.3c0.4,0.3,1.1,0.5,2,0.8C456,410,457.1,410.2,458.4,410.2z"/>
</g>
<g>
	
		<radialGradient id="SVGID_1_" cx="259.5" cy="69.5906" r="58.6105" gradientTransform="matrix(1 0 0 -0.3 0 286.6199)" gradientUnits="userSpaceOnUse">
		<stop  offset="0" style="stop-color:#5BA949;stop-opacity:0.5"/>
		<stop  offset="1" style="stop-color:#5BA949;stop-opacity:0"/>
	</radialGradient>
	<ellipse class="st1" cx="259.5" cy="265.7" rx="81.5" ry="15.4"/>
	<path class="st2" d="M236.5,83.5c0,12.2,12,27.3,17.5,34.9c1.1,1.6,5.4,1.6,6.5,0c5.4-7.6,17.5-23.9,17.5-34.9
		c0-11.5-9.3-20.7-20.7-20.7C245.7,62.8,236.5,72.1,236.5,83.5z"/>
	<path class="st3" d="M291.5,171.6c-2.4,3.3-7.5,3.1-9.6-0.3l-5.4-8.6c-0.5-0.6-0.8-1.2-1.2-1.8l-2.2-3.4c-1.3-2-1.1-4.2,0.4-6.1
		l1.8-2.1c0.4-0.5,0.8-0.7,1.2-1.3c18.4-25.2,30.6-40.3,31.5-57.3l0,0c0.1-4,0-6.2,0-7.8c0-0.1-0.1-3-0.1-3.1
		c-0.1-1.6-0.3-3.2-0.7-4.8c0-0.2-0.1-0.4-0.1-0.5c-0.2-0.9-0.4-1.8-0.6-2.7c0-0.2-0.1-0.3-0.1-0.5c-0.1-0.5-0.3-1-0.4-1.4
		c-0.1-0.2-0.1-0.4-0.2-0.7c-0.3-0.8-0.6-1.7-0.9-2.5c-0.1-0.2-0.2-0.4-0.2-0.6c-0.2-0.5-0.4-1-0.6-1.5c-0.1-0.2-0.2-0.4-0.3-0.6
		c-0.4-1-0.9-1.9-1.4-2.9c-0.1-0.1-0.1-0.2-0.2-0.3c-0.3-0.6-0.6-1.1-0.9-1.7c0-0.1-0.1-0.1-0.1-0.2c-0.3-0.6-0.6-1.1-1-1.7
		c-6.7-11.5-17.5-19.6-30.4-22.9c-13.1-3.4-26.7-1.4-38.3,5.5c-15.8,9.3-24.6,25.8-24.6,43.3c0,8.6,2.3,17.4,7,25.3l59,99.6
		c0.4,0.7,0.8,1.5,1.1,2.3l1.7,2.8c1.2,2,1.1,4.6-0.4,6.5l-10.2,13.3c-2.5,3.2-7.5,3-9.6-0.5l-5.4-9c-0.3-0.4-0.6-0.8-0.9-1.3
		l-59-99.6c-21.8-36.9-9.6-84.6,27.3-106.5c18-10.6,39-13.6,59.2-8.4c20.1,5.2,36.9,17.9,47.3,35.7c4,6.8,7,13.7,8.9,20.5
		c0,0,0,0,0,0.1c3.6,12.6,3.6,25.1,0.2,38c0,0.1-0.1,0.2-0.1,0.4c-0.2,0.7-0.4,1.4-0.6,2.2c-0.1,0.2-0.1,0.4-0.2,0.6
		c-0.3,0.8-0.5,1.7-0.8,2.5c0,0.1-0.1,0.2-0.1,0.3l0,0c-6.4,18.8-19.7,37-32.6,54.6L291.5,171.6z"/>
	<path class="st3" d="M244.3,67.3c14,2.9,24.6,15.3,24.6,30.2c0,4.7-1.1,9.1-2.9,13.1c-2.1,3.1-4,5.8-5.5,7.8
		c-1.1,1.6-5.4,1.6-6.5,0c-5.4-7.6-17.5-22.8-17.5-34.9C236.5,77,239.5,71.1,244.3,67.3z"/>
	<path class="st2" d="M243.1,19.1c-31.8,0-58.2,24.9-63.3,55.3c-0.5,3.5-0.7,6.3-0.7,12.3l0,0c0,0,0,0,0.1,1c0,0.1,0-0.7,0-0.7
		c0,1,0.1,1.5,0.2,2.4c0,0.2,0,0.2,0,0.3c0.1,1,0.2,1.9,0.3,2.9l0,0c0.3,2.2,0.7,4.4,1.1,6.6l0,0l0,0c1.7,7.9,4.7,15.6,9,23l59,99.6
		c0.3,0.5,0.6,0.9,0.9,1.3l5.4,9c2.1,3.5,7.1,3.8,9.6,0.5l10.2-13.3c1.4-1.9,1.6-4.5,0.4-6.5l-1.4-2.5c-0.3-0.7-0.9-1.6-1.4-2.6
		l-35.9-60.6l0,0l-23.1-39c-0.3-0.5-0.6-1-0.9-1.5c-0.1-0.2-0.3-0.5-0.4-0.7c-0.1-0.3-0.3-0.5-0.4-0.8c-0.2-0.3-0.3-0.6-0.5-1
		c-0.1-0.2-0.2-0.4-0.3-0.6c-0.2-0.4-0.3-0.7-0.5-1.1c-0.1-0.2-0.1-0.3-0.2-0.5c-0.2-0.4-0.3-0.8-0.5-1.2c0-0.1-0.1-0.2-0.2-0.4
		c-0.2-0.4-0.3-0.8-0.5-1.3c0-0.1-0.1-0.2-0.1-0.3c-0.2-0.5-0.3-0.9-0.5-1.4c0-0.1,0-0.1-0.1-0.2c-0.1-0.5-0.3-1-0.4-1.5v-0.1
		c-0.1-0.5-0.3-1-0.4-1.5c0,0,0,0,0-0.1c-0.9-3.7-1.3-7.5-1.3-11.2l0,0c0-0.1,0-0.1,0-0.2c0-17.4,8.8-33.9,24.6-43.3
		c11.6-6.9,25.2-8.9,38.3-5.5c12.9,3.3,23.7,11.5,30.4,22.9c0.3,0.6,0.7,1.2,1,1.7c0,0.1,0.1,0.1,0.1,0.2c0.3,0.6,0.6,1.1,0.9,1.7
		c0.1,0.1,0.1,0.2,0.2,0.3c0.5,1,1,1.9,1.4,2.9c0.1,0.2,0.2,0.4,0.3,0.6c0.2,0.5,0.4,1,0.6,1.5c0.1,0.2,0.2,0.4,0.2,0.6
		c0.3,0.9,0.6,1.7,0.9,2.5c0.1,0.2,0.1,0.4,0.2,0.7c0.1,0.5,0.3,1,0.4,1.4c0,0.2,0.1,0.3,0.1,0.5l0,0
		C300.8,41.8,274.6,19.1,243.1,19.1z"/>
</g>
<g>
	<path class="st0" d="M126.1,303.2c-5.1,0-11.5,0.5-19.3,1.6c0.9,3.7,0.7,8.8,0.7,8.8l0,0c-0.1,3.7-1.6,12-4.5,24.7
		c-3,13.3-4.7,21.7-5.1,25c0.4,0.1,1.1,0.1,2.2,0.1c4.9,0,8.6-0.6,11-1.8c0.3-4,1.5-11,3.8-21l0,0l1.5-6.6l0,0
		c2.5-10.8,4.2-19.1,5.1-25c1.6-0.4,2.9-0.6,4-0.6c1.6,0,2.9,0.7,3.7,2.1s1.3,3.3,1.3,5.5c0,5.5-1.1,9.8-3.3,13.1
		c-1.6,2.4-3.8,3.8-6.5,4.5c-0.8,2.2-1.2,4.7-1.5,6c7.9-0.1,13.9-2.2,18-6.4c4.2-4.3,6.2-9.6,6.2-15.9
		C143.5,307.9,137.7,303.2,126.1,303.2z"/>
	<path class="st0" d="M336.3,317.8c-1.9-1.3-3.7-2.7-5.4-4.1c-0.7-0.5-1.5-1.2-2.6-1.9c-1.1-0.8-2-1.4-2.7-1.9s-1.5-1-2.4-1.6
		c-3.4-2.4-5.9-3.5-7.4-3.5c-1.9,0-3.9,2.6-6,7.8c9.5,3,17.7,5.9,24.6,8.5L336.3,317.8z"/>
	<path class="st0" d="M75.9,355.5c-2.1,1.1-3.4,1.6-3.7,1.6c-0.5,0-0.7-1.1-0.7-3.2c0-2.2,0.4-5.8,1.3-10.9c0.8-5.1,2-10,3.4-14.6
		c-4.4-1.6-8-2.4-10.6-2.4c-0.5,1.3-0.8,2.1-0.9,2.2c-2.9-1.6-6-2.4-9.1-2.4c-4.4,0-8.1,2.2-11.2,6.5c-3.1,4.4-4.6,10.3-4.6,17.8
		c0,4.8,1,8.4,3,10.6s4.4,3.4,7.3,3.4s6.1-1.6,9.7-4.7c0.6,3.1,2.6,4.7,6.1,4.7c1.8,0,3.8-0.6,6.1-1.7c2.2-1.2,3.8-2.1,4.6-2.7
		c0.8-0.7,1.5-1.2,2-1.7l-1.5-3L75.9,355.5z M59.5,355.3c-1.7,1.1-3.2,1.6-4.6,1.6c-2.1,0-3.1-2.4-3.1-7.2c0-4.8,0.7-9.1,2.1-13.1
		c1.4-4,3.2-5.9,5.2-5.9c1.2,0,2.6,0.4,4.3,1.1C61.3,339.6,59.9,347.4,59.5,355.3z"/>
	<path class="st0" d="M203.8,328.3c-2.2-1.7-5.2-2.6-9-2.6c-5.8,0-10.5,2.1-14.2,6.2c-1.3,1.5-2.4,3.2-3.2,5c-2,0.4-4.1,0.6-6.1,0.7
		c0-8.4-2.2-12.6-6.7-12.6c-1.2,0-2.2,0.3-3.2,0.8l-3-0.2c-5.9,0-10.5,2.2-13.9,6.7c-3.3,4.5-5,9.9-5,16.1c0,4.9,1.1,8.7,3.3,11.4
		c2.2,2.7,5.2,4.1,9.1,4.1c5.1,0,9.3-2.2,12.6-6.5c3.3-4.4,5.4-9.5,6.5-15.4l1.7-0.3c1.2-0.2,2.3-0.5,3.3-0.7
		c-0.5,2.2-0.8,4.6-0.8,7.1c0,4.8,1.1,8.7,3.3,11.5c2.2,2.9,5.5,4.3,9.9,4.3c1.8,0,3.6-0.3,5.5-0.8c1.9-0.6,3.4-1.2,4.6-1.9
		c1.2-0.7,2.4-1.5,3.8-2.5c1.3-1,2.2-1.8,2.7-2.4l-1.9-2.6l-1.3,1c-0.9,0.6-2.1,1.3-3.6,1.9s-3,1-4.3,1c-4.2,0-6.2-3.4-6.2-10.1
		c0-4.3,0.7-8.3,2-12s3.1-5.6,5.4-5.6c0.9,0,1.6,0.2,2.1,0.5l-1.3,7.4c1,0.9,2.4,1.7,4.2,2.3c1.9,0.6,3.5,0.9,4.9,0.9
		c1.6-1.8,2.4-3.9,2.4-6.4C207.1,332.1,206,330,203.8,328.3z M162.8,352.3c-1.9,3-4,4.6-6.4,4.6c-3.1,0-4.6-3-4.6-9.1
		c0-4.3,0.6-8.1,1.9-11.4c1.2-3.3,2.6-5.4,4-6.3c0.2-0.1,0.4-0.2,0.8-0.2c0.3,0,0.6,0.1,0.8,0.2l-0.4,0.8c-0.7,1.6-1.1,3.3-1.1,5.1
		c0,4.5,3,6.7,9,6.7C166,346,164.7,349.2,162.8,352.3z"/>
	<path class="st0" d="M37.9,305.3c0-2-0.3-3.3-0.8-4.1c-3.8,0-7.9,0.8-12.3,2.3l0.5,3.7c0,5.6-1.4,14.6-4.2,27.2s-4.2,20-4.2,22.3
		s0.6,4.1,1.9,5.4c1.3,1.3,2.9,1.9,4.8,1.9s4.3-0.6,7-1.9c2.7-1.3,5-2.7,7-4.2l-1.5-3l-5.9,2.1c-0.5,0-0.8-1.1-0.8-3.2
		s1.4-9.6,4.3-22.5C36.5,318.5,37.9,309.8,37.9,305.3z"/>
	<path class="st0" d="M506.5,355l-1,0.5c-2,1.1-3.2,1.6-3.5,1.6c-0.5,0-0.7-0.9-0.7-2.7c0-1.8,0.6-5.2,1.9-10.4
		c1.3-5.2,1.9-8.8,1.9-10.9s-0.6-3.9-1.8-5.3c-1.2-1.4-2.8-2.1-4.8-2.1c-3.4,0-7.5,1.9-12.4,5.6c-0.1-2.5-0.5-4.3-1.2-5.2
		c-6.7,0-11.5,0.4-14.6,1.3l-0.1,1.1l0.8,1c1.6,2.1,2.4,4,2.4,5.9c0,1-0.8,5.3-2.4,12.7c-1.6,7.5-2.4,12.5-2.4,15.2h1.6
		c5.1,0,8.7-0.4,10.6-1.2c0-3.7,1-9.9,3-18.7c1-4.1,1.5-6.6,1.7-7.6c2.4-1.4,4.4-2.1,6-2.1c1,0,1.4,0.8,1.4,2.3s-0.6,4.9-1.9,10.2
		s-1.9,8.9-1.9,10.9c0,4.7,2.1,7,6.2,7c1.8,0,3.8-0.6,6.1-1.7c2.3-1.2,3.8-2.1,4.7-2.7c0.8-0.7,1.5-1.2,2-1.7L506.5,355z"/>
	<path class="st0" d="M441,355.5c-2.1,1.1-3.4,1.6-3.7,1.6c-0.4,0-0.7-1.1-0.7-3.2c0-2.2,0.4-5.8,1.3-10.9c0.8-5.1,2-10,3.4-14.6
		c-4.4-1.6-8-2.4-10.6-2.4c-0.5,1.3-0.8,2.1-0.9,2.2c-2.9-1.6-6-2.4-9.1-2.4c-4.4,0-8.1,2.2-11.2,6.5c-3.1,4.4-4.6,10.3-4.6,17.8
		c0,4.8,1,8.4,3,10.6s4.4,3.4,7.3,3.4s6.1-1.6,9.7-4.7c0.6,3.1,2.6,4.7,6.1,4.7c1.8,0,3.8-0.6,6.1-1.7c2.2-1.2,3.8-2.1,4.6-2.7
		c0.8-0.7,1.5-1.2,2-1.7l-1.5-3L441,355.5z M424.6,355.3c-1.7,1.1-3.2,1.6-4.6,1.6c-2.1,0-3.1-2.4-3.1-7.2c0-4.8,0.7-9.1,2.1-13.1
		s3.2-5.9,5.2-5.9c1.2,0,2.6,0.4,4.3,1.1C426.3,339.6,425,347.4,424.6,355.3z"/>
	<path class="st0" d="M462.5,355.5c-2.2,1.1-3.5,1.6-3.9,1.6c-0.5,0-0.8-0.9-0.8-2.7c0-1.8,0.8-5.5,2.3-11.3s2.3-9.8,2.3-12.2
		c0-2.4-0.4-4-1.1-4.8c-6.7,0-11.5,0.4-14.5,1.3l-0.1,1.1l0.8,1c1.5,2.1,2.2,4.3,2.2,6.7c0,1.6-0.7,5-2.1,10.2
		c-1.4,5.3-2.1,8.9-2.1,11s0.6,3.7,1.7,4.9c1.1,1.2,2.7,1.8,4.6,1.8c2,0,4.1-0.6,6.4-1.7c2.3-1.2,3.9-2.1,4.7-2.7
		c0.8-0.7,1.5-1.2,2-1.7l-1.4-3L462.5,355.5z"/>
	<path class="st0" d="M458.8,305.5c-2,0-3.8,0.7-5.4,2.1c-1.5,1.4-2.3,3-2.3,4.9s0.6,3.3,1.7,4.4s2.7,1.6,4.6,1.6
		c2,0,3.8-0.7,5.4-2.1s2.4-3,2.4-4.8s-0.6-3.3-1.7-4.4S460.9,305.5,458.8,305.5z"/>
	<path class="st0" d="M279.4,328.2c-2.1-1.6-4.9-2.4-8.2-2.4c-5.4,0-10.2,2-14.5,6.1c-4.2,4.1-6.4,9.6-6.4,16.6
		c0,4.9,1.1,8.7,3.4,11.5c2.2,2.8,5.3,4.1,9.2,4.1c3.9,0,7.4-0.9,10.7-2.7c1.2-0.7,2.4-1.5,3.8-2.5c1.3-1,2.2-1.8,2.7-2.4l-2-2.7
		l-1.3,1c-0.8,0.7-2,1.3-3.5,2s-3,1-4.3,1c-3.9,0-6.1-2.6-6.5-7.9l0,0c-0.2-2.6-0.1-5.4-0.1-5.4l0,0c0.1-2.8,0.7-5.7,1.7-8.9
		c1.2-3.6,2.8-5.4,4.9-5.4c1.8,0,2.7,1.5,2.7,4.6c0,3-0.8,5.5-2.5,7.4c-0.8,0.9-1.8,1.7-2.9,2.3c-0.6,2.1-0.7,4-0.7,5
		c3-0.6,6.3-1.8,9.9-3.5c2-1,3.6-2.4,5-4.3s2.1-4.1,2.1-6.9C282.6,332,281.5,329.8,279.4,328.2z"/>
	<path class="st0" d="M387.9,303.2c-5.1,0-11.5,0.5-19.3,1.6c0.7,2.9,0.7,6.7,0.7,8.2v0.1c0,3.5-1.5,11.9-4.5,25.2
		c-3,13.3-4.7,21.7-5.1,25c0.4,0.1,1.1,0.1,2.2,0.1c4.9,0,8.6-0.6,11-1.8c0.3-4.1,1.6-11.4,4-22l0,0l1.3-5.6l0,0
		c2.5-10.8,4.2-19.1,5.1-25c1.6-0.4,2.9-0.6,4-0.6c1.6,0,2.9,0.7,3.7,2.1c0.8,1.4,1.3,3.3,1.3,5.5c0,5.5-1.1,9.8-3.3,13.1
		c-1.6,2.4-3.8,3.9-6.5,4.5c-0.8,2.2-1.2,4.7-1.4,6c7.9-0.1,13.9-2.2,18-6.4c4.2-4.3,6.2-9.6,6.2-15.9
		C405.2,307.9,399.4,303.2,387.9,303.2z"/>
	<path class="st0" d="M245.5,355.6c-1.9,1-3.1,1.5-3.5,1.5c-0.5,0-0.7-0.9-0.7-2.8s0.6-5.3,1.9-10.3c1.3-5,1.9-8.7,1.9-10.9
		c0-2.2-0.5-4-1.6-5.4c-1.1-1.3-2.7-2-4.8-2c-3.4,0-7.4,1.7-12,5c3.1-13.4,4.7-21.9,4.7-25.6c0-2.1-0.3-3.4-0.8-3.9
		c-3.9,0-8,0.8-12.4,2.3c0.3,0.8,0.5,2.1,0.5,4c0,5-1.7,14.6-5,28.7s-5,22.4-5,24.8c0,0.7,0,1.6,0.1,2.5c5.7,0,9.7-0.4,12.1-1.3
		c0-4,1.5-12.9,4.6-26.5c2.2-1.2,4-1.9,5.5-1.9c1.2,0,1.8,0.7,1.8,2.2s-0.6,4.9-1.9,10.3c-1.3,5.4-1.9,9.2-1.9,11.2
		c0,2.1,0.6,3.7,1.7,4.9c1.1,1.2,2.6,1.8,4.5,1.8s3.9-0.6,6.2-1.7c2.2-1.1,3.8-2,4.6-2.7s1.5-1.2,2-1.7l-1.5-3L245.5,355.6z"/>
	<path class="st0" d="M337.6,355.5c-2.1,1.1-3.4,1.6-3.7,1.6c-0.5,0-0.7-1.1-0.7-3.2c0-2.2,0.4-5.8,1.3-10.9c0.8-5.1,2-10,3.4-14.6
		c-4.4-1.6-8-2.4-10.6-2.4c-0.5,1.3-0.8,2.1-0.9,2.2c-2.9-1.6-6-2.4-9.1-2.4c-4.4,0-8.1,2.2-11.2,6.5c-3.1,4.4-4.6,10.3-4.6,17.8
		c0,4.8,1,8.4,3,10.6s4.4,3.4,7.3,3.4s6.1-1.6,9.7-4.7c0.6,3.1,2.6,4.7,6.1,4.7c1.8,0,3.8-0.6,6.1-1.7c2.2-1.2,3.8-2.1,4.6-2.7
		c0.8-0.7,1.5-1.2,2-1.7l-1.5-3L337.6,355.5z M321.3,355.3c-1.7,1.1-3.2,1.6-4.6,1.6c-2.1,0-3.1-2.4-3.1-7.2c0-4.8,0.7-9.1,2.1-13.1
		s3.2-5.9,5.2-5.9c1.2,0,2.6,0.4,4.3,1.1C323,339.6,321.7,347.4,321.3,355.3z"/>
</g>
</svg>
