<?xml version="1.0" encoding="utf-8"?>
<!-- Generator: Adobe Illustrator 19.2.1, SVG Export Plug-In . SVG Version: 6.00 Build 0)  -->
<svg version="1.1" id="Calque_1" xmlns="http://www.w3.org/2000/svg" xmlns:xlink="http://www.w3.org/1999/xlink" x="0px" y="0px"
	 viewBox="0 0 562.7 164" style="enable-background:new 0 0 562.7 164;" xml:space="preserve">
<style type="text/css">
	.st0{fill:#FFFFFF;}
	.st1{fill:url(#SVGID_1_);}
	.st2{fill:#5BA949;}
	.st3{fill:#97CB64;}
</style>
<g>
	<path class="st0" d="M178.2,126.3c2.5,0,3.8-0.9,3.8-2.6c0-0.5-0.1-1-0.3-1.4s-0.5-0.7-0.9-1s-0.8-0.5-1.3-0.7s-1-0.4-1.6-0.6
		c-0.6-0.2-1.2-0.5-1.8-0.7c-0.6-0.3-1.1-0.6-1.5-1s-0.7-0.8-1-1.3s-0.4-1.1-0.4-1.9c0-1.5,0.5-2.7,1.5-3.5s2.5-1.3,4.3-1.3
		c1,0,2,0.1,2.9,0.3s1.5,0.5,1.9,0.7l-0.8,2c-0.3-0.2-0.9-0.4-1.6-0.6s-1.5-0.3-2.4-0.3c-0.5,0-0.9,0-1.3,0.2
		c-0.4,0.1-0.7,0.2-1,0.4s-0.5,0.5-0.7,0.8s-0.3,0.7-0.3,1.1c0,0.5,0.1,0.9,0.3,1.2c0.2,0.3,0.4,0.6,0.8,0.8s0.7,0.5,1.2,0.7
		c0.4,0.2,0.9,0.4,1.5,0.6c0.7,0.3,1.4,0.6,2.1,0.9c0.6,0.3,1.2,0.7,1.6,1.1s0.8,0.9,1.1,1.5c0.3,0.6,0.4,1.3,0.4,2.1
		c0,1.5-0.6,2.7-1.7,3.5c-1.1,0.8-2.7,1.2-4.7,1.2c-0.7,0-1.3,0-1.9-0.1s-1.1-0.2-1.5-0.3s-0.8-0.3-1.2-0.4s-0.6-0.3-0.8-0.4l0.7-2
		c0.4,0.2,1,0.5,1.7,0.7C176.1,126.2,177.1,126.3,178.2,126.3z"/>
	<path class="st0" d="M200.5,128c-0.3-0.7-0.5-1.5-0.8-2.2s-0.5-1.5-0.8-2.2h-7.8l-1.6,4.4H187c0.7-1.8,1.3-3.5,1.9-5.1
		s1.2-3,1.7-4.4c0.6-1.4,1.1-2.7,1.7-4c0.5-1.3,1.1-2.5,1.7-3.8h2.2c0.6,1.2,1.2,2.5,1.7,3.8s1.1,2.6,1.7,4s1.1,2.9,1.7,4.4
		c0.6,1.6,1.2,3.2,1.9,5.1H200.5z M198.2,121.6c-0.5-1.4-1.1-2.8-1.6-4.2s-1.1-2.7-1.6-3.9c-0.6,1.2-1.1,2.5-1.7,3.9
		c-0.5,1.4-1,2.8-1.6,4.2H198.2z"/>
	<path class="st0" d="M214,128.4c-1.2,0-2.3-0.2-3.3-0.6c-1-0.4-1.9-1-2.6-1.7c-0.7-0.8-1.3-1.7-1.7-2.8c-0.4-1.1-0.6-2.4-0.6-3.9
		s0.2-2.7,0.7-3.9c0.4-1.1,1-2.1,1.8-2.8c0.7-0.8,1.6-1.3,2.6-1.7s2.1-0.6,3.2-0.6c0.7,0,1.4,0,1.9,0.1s1.1,0.2,1.5,0.3
		s0.8,0.3,1,0.4c0.3,0.1,0.4,0.2,0.5,0.3l-0.7,2c-0.2-0.1-0.4-0.2-0.6-0.3c-0.3-0.1-0.6-0.2-1-0.3s-0.7-0.2-1.2-0.3
		c-0.4-0.1-0.9-0.1-1.3-0.1c-0.9,0-1.7,0.2-2.5,0.5c-0.7,0.3-1.4,0.8-1.9,1.4s-0.9,1.3-1.2,2.2c-0.3,0.9-0.4,1.8-0.4,2.9
		c0,1,0.1,2,0.4,2.8s0.6,1.6,1.1,2.2c0.5,0.6,1.1,1.1,1.8,1.4s1.6,0.5,2.5,0.5c1.1,0,2-0.1,2.8-0.3c0.7-0.2,1.3-0.4,1.6-0.6l0.6,2
		c-0.1,0.1-0.3,0.2-0.6,0.3c-0.3,0.1-0.7,0.2-1.1,0.4s-1,0.2-1.6,0.3C215.3,128.4,214.7,128.4,214,128.4z"/>
	<path class="st0" d="M227.8,126.3c2.5,0,3.8-0.9,3.8-2.6c0-0.5-0.1-1-0.3-1.4s-0.5-0.7-0.9-1s-0.8-0.5-1.3-0.7s-1-0.4-1.6-0.6
		c-0.6-0.2-1.2-0.5-1.8-0.7c-0.6-0.3-1.1-0.6-1.5-1s-0.7-0.8-1-1.3s-0.4-1.1-0.4-1.9c0-1.5,0.5-2.7,1.5-3.5s2.5-1.3,4.3-1.3
		c1,0,2,0.1,2.9,0.3s1.5,0.5,1.9,0.7l-0.8,2c-0.3-0.2-0.9-0.4-1.6-0.6s-1.5-0.3-2.4-0.3c-0.5,0-0.9,0-1.3,0.2
		c-0.4,0.1-0.7,0.2-1,0.4s-0.5,0.5-0.7,0.8s-0.3,0.7-0.3,1.1c0,0.5,0.1,0.9,0.3,1.2c0.2,0.3,0.4,0.6,0.8,0.8s0.7,0.5,1.2,0.7
		c0.4,0.2,0.9,0.4,1.5,0.6c0.7,0.3,1.4,0.6,2.1,0.9c0.6,0.3,1.2,0.7,1.6,1.1s0.8,0.9,1.1,1.5c0.3,0.6,0.4,1.3,0.4,2.1
		c0,1.5-0.6,2.7-1.7,3.5c-1.1,0.8-2.7,1.2-4.7,1.2c-0.7,0-1.3,0-1.9-0.1s-1.1-0.2-1.5-0.3s-0.8-0.3-1.2-0.4s-0.6-0.3-0.8-0.4l0.7-2
		c0.4,0.2,1,0.5,1.7,0.7C225.7,126.2,226.6,126.3,227.8,126.3z"/>
	<path class="st0" d="M257.3,128c-0.3-0.7-0.5-1.5-0.8-2.2s-0.5-1.5-0.8-2.2h-7.8l-1.6,4.4h-2.5c0.7-1.8,1.3-3.5,1.9-5.1
		s1.2-3,1.7-4.4c0.6-1.4,1.1-2.7,1.7-4c0.5-1.3,1.1-2.5,1.7-3.8h2.2c0.6,1.2,1.2,2.5,1.7,3.8s1.1,2.6,1.7,4c0.6,1.4,1.1,2.9,1.7,4.4
		c0.6,1.6,1.2,3.2,1.9,5.1H257.3z M255.1,121.6c-0.5-1.4-1.1-2.8-1.6-4.2s-1.1-2.7-1.6-3.9c-0.6,1.2-1.1,2.5-1.7,3.9
		c-0.5,1.4-1,2.8-1.6,4.2H255.1z M250.4,104.8l3.2,3.8l-1.2,1l-3.5-3.4L250.4,104.8z"/>
	<path class="st0" d="M275.7,110.6c2.4,0,4.3,0.5,5.6,1.4c1.3,0.9,2,2.3,2,4.1c0,1-0.2,1.9-0.5,2.6c-0.4,0.7-0.9,1.3-1.5,1.7
		c-0.7,0.4-1.5,0.8-2.5,1s-2.1,0.3-3.3,0.3h-1.9v6.4h-2.4v-17c0.7-0.2,1.4-0.3,2.3-0.3S275,110.6,275.7,110.6z M275.9,112.7
		c-1,0-1.8,0-2.4,0.1v6.8h1.8c0.8,0,1.6-0.1,2.2-0.2c0.7-0.1,1.2-0.3,1.7-0.5c0.5-0.3,0.8-0.6,1.1-1.1c0.2-0.4,0.4-1,0.4-1.7
		s-0.1-1.2-0.4-1.6s-0.6-0.8-1-1c-0.4-0.3-1-0.4-1.5-0.5C277.1,112.7,276.5,112.7,275.9,112.7z"/>
	<path class="st0" d="M298.1,128c-0.3-0.7-0.5-1.5-0.8-2.2s-0.5-1.5-0.8-2.2h-7.8l-1.6,4.4h-2.5c0.7-1.8,1.3-3.5,1.9-5.1
		s1.2-3,1.7-4.4c0.6-1.4,1.1-2.7,1.7-4c0.5-1.3,1.1-2.5,1.7-3.8h2.2c0.6,1.2,1.2,2.5,1.7,3.8s1.1,2.6,1.7,4s1.1,2.9,1.7,4.4
		c0.6,1.6,1.2,3.2,1.9,5.1H298.1z M295.8,121.6c-0.5-1.4-1.1-2.8-1.6-4.2s-1.1-2.7-1.6-3.9c-0.6,1.2-1.1,2.5-1.7,3.9
		c-0.5,1.4-1,2.8-1.6,4.2H295.8z"/>
	<path class="st0" d="M304.6,110.7h2.4V128h-2.4V110.7z"/>
	<path class="st0" d="M324.6,128c-0.4-0.6-0.8-1.3-1.3-2.1s-1-1.6-1.5-2.4c-0.5-0.8-1.1-1.7-1.7-2.5s-1.2-1.7-1.8-2.5
		c-0.6-0.8-1.1-1.5-1.7-2.2c-0.5-0.7-1.1-1.3-1.5-1.8V128h-2.4v-17.3h1.9c0.8,0.8,1.6,1.8,2.5,2.9c0.9,1.1,1.8,2.2,2.6,3.4
		c0.9,1.2,1.7,2.3,2.5,3.5c0.8,1.1,1.4,2.1,2,3v-12.8h2.4V128L324.6,128L324.6,128z"/>
	<path class="st0" d="M344.3,110.6c2.4,0,4.3,0.5,5.6,1.4c1.3,0.9,2,2.3,2,4.1c0,1-0.2,1.9-0.5,2.6c-0.4,0.7-0.9,1.3-1.5,1.7
		c-0.7,0.4-1.5,0.8-2.5,1s-2.1,0.3-3.3,0.3h-1.9v6.4h-2.5v-17c0.7-0.2,1.4-0.3,2.3-0.3S343.6,110.6,344.3,110.6z M344.5,112.7
		c-1,0-1.8,0-2.4,0.1v6.8h1.8c0.8,0,1.6-0.1,2.2-0.2c0.7-0.1,1.2-0.3,1.7-0.5c0.5-0.3,0.8-0.6,1.1-1.1c0.2-0.4,0.4-1,0.4-1.7
		s-0.1-1.2-0.4-1.6s-0.6-0.8-1-1c-0.4-0.3-1-0.4-1.5-0.5C345.7,112.7,345.1,112.7,344.5,112.7z"/>
	<path class="st0" d="M362.8,128.4c-1.1,0-2.1-0.2-2.9-0.5c-0.8-0.3-1.5-0.8-2-1.4s-0.9-1.3-1.2-2.2s-0.4-1.7-0.4-2.7v-10.9h2.4
		v10.6c0,1.7,0.4,3,1.1,3.8c0.8,0.8,1.8,1.2,3,1.2c0.6,0,1.2-0.1,1.7-0.3s0.9-0.5,1.3-0.9s0.6-0.9,0.8-1.5c0.2-0.6,0.3-1.4,0.3-2.2
		v-10.6h2.4v10.9c0,1-0.1,1.9-0.4,2.7s-0.7,1.6-1.2,2.2c-0.5,0.6-1.2,1.1-2,1.4C364.9,128.2,363.9,128.4,362.8,128.4z"/>
	<path class="st0" d="M379.7,128.2c-0.3,0-0.7,0-1.1,0s-0.8,0-1.2-0.1c-0.4,0-0.8-0.1-1.2-0.1s-0.8-0.1-1.1-0.2V111
		c0.3-0.1,0.7-0.1,1.1-0.2c0.4-0.1,0.8-0.1,1.2-0.1c0.4,0,0.8-0.1,1.2-0.1s0.8,0,1.1,0c1,0,1.9,0.1,2.8,0.2c0.9,0.1,1.6,0.4,2.3,0.8
		c0.6,0.4,1.1,0.8,1.5,1.4c0.4,0.6,0.5,1.3,0.5,2.1c0,0.9-0.2,1.7-0.7,2.3c-0.4,0.6-1,1.1-1.8,1.4c1,0.3,1.8,0.8,2.4,1.4
		c0.6,0.6,0.9,1.6,0.9,2.7c0,1.7-0.6,3-1.9,3.9C384.5,127.8,382.5,128.2,379.7,128.2z M377.4,118h2.5c0.6,0,1.2,0,1.7-0.1
		s1-0.2,1.4-0.4s0.7-0.5,0.9-0.8s0.3-0.8,0.3-1.3s-0.1-0.9-0.3-1.3c-0.2-0.3-0.6-0.6-1-0.8s-0.9-0.4-1.4-0.5s-1.1-0.1-1.7-0.1
		s-1.1,0-1.4,0s-0.7,0-0.9,0.1v5.2H377.4z M377.4,120v6.1c0.2,0,0.4,0,0.6,0s0.5,0,0.8,0s0.6,0,1,0c0.7,0,1.4,0,2-0.1
		s1.2-0.3,1.7-0.5s0.9-0.6,1.2-1c0.3-0.4,0.4-0.9,0.4-1.6c0-0.6-0.1-1-0.3-1.4c-0.2-0.4-0.5-0.7-0.9-0.9s-0.9-0.4-1.5-0.5
		s-1.2-0.2-1.9-0.2L377.4,120L377.4,120z"/>
	<path class="st0" d="M403,125.9v2.1h-10.4v-17.3h2.4v15.2H403z"/>
	<path class="st0" d="M407,110.7h2.4V128H407V110.7z"/>
	<path class="st0" d="M422.7,128.4c-1.2,0-2.3-0.2-3.3-0.6c-1-0.4-1.9-1-2.6-1.7c-0.7-0.8-1.3-1.7-1.7-2.8s-0.6-2.4-0.6-3.9
		s0.2-2.7,0.7-3.9c0.4-1.1,1-2.1,1.8-2.8c0.7-0.8,1.6-1.3,2.6-1.7s2.1-0.6,3.2-0.6c0.7,0,1.4,0,1.9,0.1s1.1,0.2,1.5,0.3
		s0.8,0.3,1,0.4c0.3,0.1,0.4,0.2,0.5,0.3l-0.7,2c-0.2-0.1-0.4-0.2-0.6-0.3c-0.3-0.1-0.6-0.2-1-0.3s-0.7-0.2-1.2-0.3
		c-0.4-0.1-0.9-0.1-1.3-0.1c-0.9,0-1.7,0.2-2.5,0.5c-0.7,0.3-1.4,0.8-1.9,1.4s-0.9,1.3-1.2,2.2s-0.4,1.8-0.4,2.9c0,1,0.1,2,0.4,2.8
		s0.6,1.6,1.1,2.2c0.5,0.6,1.1,1.1,1.8,1.4s1.6,0.5,2.5,0.5c1.1,0,2-0.1,2.8-0.3c0.7-0.2,1.3-0.4,1.6-0.6l0.6,2
		c-0.1,0.1-0.3,0.2-0.6,0.3s-0.7,0.2-1.1,0.4s-1,0.2-1.6,0.3C424,128.4,423.4,128.4,422.7,128.4z"/>
	<path class="st0" d="M432.2,110.7h2.4V128h-2.4V110.7z"/>
	<path class="st0" d="M452,110.7v2.1h-5.4V128h-2.4v-15.2h-5.5v-2.1H452z"/>
	<path class="st0" d="M466,128c-0.3-0.7-0.5-1.5-0.8-2.2s-0.5-1.5-0.8-2.2h-7.8L455,128h-2.5c0.7-1.8,1.3-3.5,1.9-5.1
		c0.6-1.6,1.2-3,1.7-4.4c0.6-1.4,1.1-2.7,1.7-4c0.5-1.3,1.1-2.5,1.7-3.8h2.2c0.6,1.2,1.2,2.5,1.7,3.8s1.1,2.6,1.7,4s1.1,2.9,1.7,4.4
		c0.6,1.6,1.2,3.2,1.9,5.1H466z M463.7,121.6c-0.5-1.4-1.1-2.8-1.6-4.2s-1.1-2.7-1.6-3.9c-0.6,1.2-1.1,2.5-1.7,3.9
		c-0.5,1.4-1,2.8-1.6,4.2H463.7z"/>
	<path class="st0" d="M472.5,110.7h2.4V128h-2.4V110.7z"/>
	<path class="st0" d="M489.1,120.8c0.3,0.3,0.6,0.8,1,1.3s0.8,1.1,1.3,1.8c0.4,0.7,0.9,1.3,1.3,2.1c0.4,0.7,0.8,1.4,1.1,2.1h-2.6
		c-0.3-0.6-0.7-1.3-1.1-1.9c-0.4-0.6-0.8-1.3-1.2-1.9c-0.4-0.6-0.8-1.1-1.2-1.7c-0.4-0.5-0.7-1-1.1-1.3c-0.2,0-0.4,0-0.7,0
		s-0.5,0-0.7,0H483v6.8h-2.3v-17c0.7-0.2,1.4-0.3,2.3-0.3s1.6-0.1,2.3-0.1c2.4,0,4.3,0.5,5.6,1.4s1.9,2.3,1.9,4.1
		c0,1.1-0.3,2.1-0.9,2.9S490.3,120.4,489.1,120.8z M485.5,112.7c-1,0-1.8,0-2.4,0.1v6.5h1.7c0.8,0,1.6,0,2.2-0.1
		c0.7-0.1,1.2-0.2,1.7-0.5c0.5-0.2,0.8-0.6,1.1-1s0.4-1,0.4-1.7c0-0.6-0.1-1.2-0.4-1.6c-0.2-0.4-0.6-0.8-1-1
		c-0.4-0.3-0.9-0.4-1.5-0.5S486.1,112.7,485.5,112.7z"/>
	<path class="st0" d="M497.9,128v-17.3h10.6v2.1h-8.1v5.1h7.2v2h-7.2v6h8.8v2.1L497.9,128L497.9,128z"/>
	<path class="st0" d="M517.6,126.3c2.5,0,3.8-0.9,3.8-2.6c0-0.5-0.1-1-0.3-1.4s-0.5-0.7-0.9-1s-0.8-0.5-1.3-0.7s-1-0.4-1.6-0.6
		c-0.6-0.2-1.2-0.5-1.8-0.7c-0.6-0.3-1.1-0.6-1.5-1s-0.7-0.8-1-1.3s-0.4-1.1-0.4-1.9c0-1.5,0.5-2.7,1.5-3.5s2.5-1.3,4.3-1.3
		c1,0,2,0.1,2.9,0.3s1.5,0.5,1.9,0.7l-0.8,2c-0.3-0.2-0.9-0.4-1.6-0.6s-1.5-0.3-2.4-0.3c-0.5,0-0.9,0-1.3,0.2
		c-0.4,0.1-0.7,0.2-1,0.4s-0.5,0.5-0.7,0.8s-0.3,0.7-0.3,1.1c0,0.5,0.1,0.9,0.3,1.2s0.4,0.6,0.8,0.8s0.7,0.5,1.2,0.7
		c0.4,0.2,0.9,0.4,1.5,0.6c0.7,0.3,1.4,0.6,2.1,0.9c0.6,0.3,1.2,0.7,1.6,1.1s0.8,0.9,1.1,1.5s0.4,1.3,0.4,2.1c0,1.5-0.6,2.7-1.7,3.5
		c-1.1,0.8-2.7,1.2-4.7,1.2c-0.7,0-1.3,0-1.9-0.1c-0.6-0.1-1.1-0.2-1.5-0.3s-0.8-0.3-1.2-0.4s-0.6-0.3-0.8-0.4l0.7-2
		c0.4,0.2,1,0.5,1.7,0.7C515.5,126.2,516.5,126.3,517.6,126.3z"/>
</g>
<g>
	<path class="st0" d="M233.4,34.8c-4.3,0-9.8,0.5-16.5,1.4c0.8,3.1,0.6,7.5,0.6,7.5l0,0c-0.1,3.2-1.4,10.3-3.8,21.2
		c-2.5,11.4-4,18.5-4.3,21.4c0.3,0,1,0.1,1.9,0.1c4.2,0,7.4-0.5,9.4-1.5c0.2-3.4,1.3-9.4,3.3-18l0,0l1.3-5.6l0,0
		c2.1-9.2,3.6-16.4,4.3-21.4c1.3-0.3,2.5-0.5,3.4-0.5c1.4,0,2.5,0.6,3.2,1.8s1.1,2.8,1.1,4.7c0,4.7-0.9,8.4-2.8,11.2
		c-1.4,2-3.2,3.3-5.5,3.8c-0.7,1.9-1.1,4-1.2,5.2c6.8-0.1,11.9-1.9,15.4-5.5c3.6-3.7,5.3-8.2,5.3-13.6
		C248.2,38.9,243.3,34.8,233.4,34.8z"/>
	<path class="st0" d="M413.2,47.3c-1.6-1.2-3.2-2.3-4.6-3.5c-0.6-0.4-1.3-1-2.2-1.7s-1.7-1.2-2.3-1.6c-0.6-0.4-1.3-0.9-2.1-1.4
		c-2.9-2-5-3-6.3-3c-1.6,0-3.3,2.2-5.1,6.7c8.1,2.6,15.1,5,21.1,7.3L413.2,47.3z"/>
	<path class="st0" d="M190.4,79.5c-1.8,0.9-2.9,1.4-3.2,1.4c-0.4,0-0.6-0.9-0.6-2.8c0-1.8,0.4-5,1.1-9.3c0.7-4.4,1.7-8.5,2.9-12.5
		c-3.8-1.3-6.8-2-9.1-2c-0.4,1.2-0.7,1.8-0.8,1.9c-2.5-1.4-5.1-2.1-7.8-2.1c-3.8,0-6.9,1.9-9.6,5.6c-2.6,3.7-4,8.8-4,15.3
		c0,4.1,0.9,7.2,2.6,9.1c1.7,1.9,3.8,2.9,6.3,2.9s5.3-1.3,8.3-4c0.5,2.7,2.2,4,5.2,4c1.5,0,3.3-0.5,5.2-1.5c1.9-1,3.2-1.8,3.9-2.3
		c0.7-0.6,1.3-1.1,1.7-1.4l-1.3-2.5L190.4,79.5z M176.4,79.4c-1.4,0.9-2.7,1.4-3.9,1.4c-1.8,0-2.7-2-2.7-6.1s0.6-7.8,1.8-11.2
		c1.2-3.4,2.7-5.1,4.4-5.1c1,0,2.2,0.3,3.7,0.9C177.9,65.9,176.8,72.6,176.4,79.4z"/>
	<path class="st0" d="M299.8,56.3c-1.9-1.5-4.5-2.2-7.7-2.2c-5,0-9,1.8-12.2,5.3c-1.1,1.3-2.1,2.7-2.8,4.3c-1.7,0.3-3.5,0.6-5.2,0.6
		c0-7.2-1.9-10.7-5.7-10.7c-1,0-1.9,0.2-2.7,0.6l-2.6-0.1c-5,0-9,1.9-11.9,5.8c-2.9,3.8-4.3,8.4-4.3,13.8c0,4.2,0.9,7.4,2.8,9.8
		c1.9,2.3,4.5,3.5,7.8,3.5c4.4,0,8-1.9,10.7-5.6c2.8-3.7,4.6-8.1,5.6-13.2l1.4-0.3c1-0.2,1.9-0.4,2.8-0.6c-0.5,1.9-0.7,3.9-0.7,6.1
		c0,4.1,0.9,7.4,2.8,9.9s4.7,3.7,8.4,3.7c1.5,0,3.1-0.2,4.7-0.7s2.9-1,3.9-1.6s2.1-1.3,3.2-2.2c1.2-0.9,1.9-1.6,2.3-2.1l-1.7-2.2
		l-1.1,0.9c-0.8,0.5-1.8,1.1-3.1,1.6c-1.3,0.6-2.5,0.8-3.7,0.8c-3.6,0-5.3-2.9-5.3-8.7c0-3.7,0.6-7.1,1.7-10.3
		c1.2-3.2,2.7-4.8,4.6-4.8c0.8,0,1.4,0.1,1.8,0.4l-1.1,6.3c0.8,0.8,2,1.4,3.6,1.9s3,0.8,4.2,0.8c1.3-1.5,2-3.4,2-5.5
		C302.7,59.5,301.7,57.7,299.8,56.3z M264.8,76.8c-1.6,2.6-3.4,3.9-5.4,3.9c-2.6,0-4-2.6-4-7.8c0-3.7,0.5-6.9,1.6-9.7
		c1.1-2.8,2.2-4.6,3.4-5.4c0.1-0.1,0.4-0.1,0.6-0.1c0.3,0,0.5,0,0.7,0.1l-0.4,0.7c-0.6,1.3-0.9,2.8-0.9,4.3c0,3.8,2.6,5.8,7.7,5.8
		C267.5,71.5,266.4,74.2,264.8,76.8z"/>
	<path class="st0" d="M157.9,36.6c0-1.7-0.2-2.9-0.7-3.5c-3.3,0-6.8,0.6-10.5,1.9l0.4,3.2c0,4.8-1.2,12.5-3.6,23.3
		c-2.4,10.7-3.6,17.1-3.6,19.1s0.5,3.5,1.6,4.7c1.1,1.1,2.5,1.7,4.1,1.7c1.7,0,3.7-0.6,6-1.7c2.3-1.1,4.3-2.3,5.9-3.6l-1.3-2.5
		l-5,1.8c-0.4,0-0.6-0.9-0.6-2.7s1.2-8.2,3.6-19.3C156.7,47.9,157.9,40.5,157.9,36.6z"/>
	<path class="st0" d="M558.8,79.1l-0.9,0.4c-1.7,0.9-2.7,1.4-3,1.4c-0.4,0-0.6-0.8-0.6-2.3s0.6-4.5,1.7-8.9c1.1-4.4,1.7-7.5,1.7-9.3
		s-0.5-3.3-1.6-4.5c-1-1.2-2.4-1.8-4.1-1.8c-2.9,0-6.4,1.6-10.6,4.8c0-2.2-0.4-3.7-1-4.5c-5.7,0-9.9,0.4-12.5,1.1l-0.1,0.9l0.6,0.9
		c1.3,1.8,2,3.5,2,5c0,0.9-0.7,4.5-2.1,10.9c-1.4,6.4-2.1,10.7-2.1,13h1.4c4.4,0,7.4-0.3,9.1-1c0-3.1,0.8-8.5,2.5-16
		c0.8-3.5,1.3-5.7,1.4-6.5c2-1.2,3.7-1.8,5.1-1.8c0.8,0,1.2,0.6,1.2,1.9c0,1.3-0.5,4.2-1.6,8.7s-1.6,7.6-1.6,9.3c0,4,1.8,6,5.3,6
		c1.5,0,3.3-0.5,5.2-1.5s3.3-1.8,4-2.3s1.3-1.1,1.7-1.4L558.8,79.1z"/>
	<path class="st0" d="M502.7,79.5c-1.8,0.9-2.9,1.4-3.2,1.4c-0.4,0-0.6-0.9-0.6-2.8c0-1.8,0.4-5,1.1-9.3c0.7-4.4,1.7-8.5,2.9-12.5
		c-3.8-1.3-6.8-2-9.1-2c-0.4,1.2-0.7,1.8-0.8,1.9c-2.5-1.4-5.1-2.1-7.8-2.1c-3.7,0-6.9,1.9-9.6,5.6c-2.6,3.7-4,8.8-4,15.3
		c0,4.1,0.9,7.2,2.6,9.1c1.7,1.9,3.8,2.9,6.3,2.9s5.3-1.3,8.3-4c0.5,2.7,2.2,4,5.2,4c1.5,0,3.3-0.5,5.2-1.5s3.2-1.8,3.9-2.3
		c0.7-0.6,1.3-1.1,1.7-1.4l-1.3-2.5L502.7,79.5z M488.7,79.4c-1.4,0.9-2.7,1.4-3.9,1.4c-1.8,0-2.7-2-2.7-6.1s0.6-7.8,1.8-11.2
		c1.2-3.4,2.7-5.1,4.4-5.1c1,0,2.2,0.3,3.7,0.9C490.2,65.9,489.1,72.6,488.7,79.4z"/>
	<path class="st0" d="M521.2,79.5c-1.9,0.9-3,1.4-3.3,1.4c-0.4,0-0.6-0.8-0.6-2.3s0.6-4.7,1.9-9.7c1.3-4.9,1.9-8.4,1.9-10.4
		s-0.3-3.4-0.9-4.1c-5.7,0-9.9,0.4-12.4,1.1l-0.1,0.9l0.6,0.9c1.2,1.8,1.9,3.7,1.9,5.7c0,1.3-0.6,4.3-1.8,8.8s-1.8,7.6-1.8,9.4
		c0,1.8,0.5,3.1,1.4,4.2c1,1,2.3,1.6,4,1.6c1.7,0,3.5-0.5,5.5-1.5s3.3-1.8,4-2.3c0.7-0.6,1.3-1.1,1.7-1.4l-1.2-2.5L521.2,79.5z"/>
	<path class="st0" d="M518,36.8c-1.7,0-3.3,0.6-4.6,1.8s-2,2.6-2,4.2c0,1.6,0.5,2.8,1.4,3.8c1,0.9,2.3,1.4,4,1.4s3.2-0.6,4.6-1.8
		c1.4-1.2,2.1-2.6,2.1-4.1c0-1.6-0.5-2.8-1.4-3.8C521.1,37.2,519.7,36.8,518,36.8z"/>
	<path class="st0" d="M364.5,56.2c-1.8-1.4-4.2-2.1-7-2.1c-4.6,0-8.7,1.7-12.4,5.2c-3.6,3.5-5.4,8.2-5.4,14.2c0,4.2,1,7.5,2.9,9.8
		c1.9,2.4,4.5,3.5,7.9,3.5s6.4-0.8,9.2-2.3c1-0.6,2.1-1.3,3.2-2.2c1.2-0.9,1.9-1.6,2.3-2.1l-1.7-2.3l-1.1,0.9
		c-0.7,0.6-1.7,1.2-3,1.7c-1.3,0.6-2.5,0.9-3.7,0.9c-3.4,0-5.2-2.3-5.6-6.8l0,0c-0.2-2.2,0-4.6,0-4.6l0,0c0.1-2.4,0.6-4.9,1.4-7.6
		c1-3.1,2.4-4.7,4.2-4.7c1.5,0,2.3,1.3,2.3,3.9c0,2.6-0.7,4.7-2.2,6.3c-0.7,0.8-1.5,1.5-2.5,2c-0.6,1.8-0.6,3.4-0.6,4.3
		c2.6-0.5,5.4-1.5,8.4-3c1.7-0.9,3.1-2.1,4.3-3.7c1.2-1.6,1.8-3.5,1.8-5.9C367.2,59.2,366.3,57.6,364.5,56.2z"/>
	<path class="st0" d="M457.3,34.8c-4.3,0-9.9,0.5-16.5,1.4c0.6,2.5,0.6,5.8,0.6,7v0.1c0,3-1.3,10.2-3.8,21.6
		c-2.5,11.4-4,18.5-4.3,21.4c0.3,0,1,0.1,1.9,0.1c4.2,0,7.4-0.5,9.4-1.5c0.2-3.5,1.4-9.8,3.5-18.8l0,0l1.1-4.8l0,0
		c2.1-9.2,3.6-16.4,4.3-21.4c1.3-0.3,2.5-0.5,3.4-0.5c1.4,0,2.5,0.6,3.2,1.8s1.1,2.8,1.1,4.7c0,4.7-0.9,8.4-2.8,11.2
		c-1.4,2-3.2,3.3-5.6,3.9c-0.6,1.9-1,4-1.2,5.1c6.8-0.1,11.9-1.9,15.4-5.5c3.6-3.7,5.3-8.2,5.3-13.6
		C472.2,38.9,467.2,34.8,457.3,34.8z"/>
	<path class="st0" d="M335.5,79.6c-1.6,0.9-2.6,1.3-3,1.3s-0.6-0.8-0.6-2.4c0-1.6,0.6-4.5,1.7-8.8s1.7-7.4,1.7-9.3
		c0-1.9-0.5-3.4-1.4-4.6c-0.9-1.2-2.3-1.7-4.1-1.7c-2.9,0-6.3,1.4-10.2,4.3c2.7-11.4,4-18.7,4-21.9c0-1.8-0.2-2.9-0.6-3.3
		c-3.3,0-6.9,0.6-10.6,1.9c0.3,0.7,0.4,1.8,0.4,3.4c0,4.3-1.4,12.5-4.3,24.5c-2.9,12.1-4.3,19.1-4.3,21.2c0,0.6,0,1.3,0.1,2.2
		c4.9,0,8.3-0.4,10.3-1.2c0-3.5,1.3-11,4-22.6c1.9-1.1,3.4-1.6,4.7-1.6c1,0,1.5,0.6,1.5,1.8c0,1.2-0.5,4.2-1.6,8.8s-1.6,7.8-1.6,9.6
		s0.5,3.1,1.4,4.2c1,1,2.2,1.6,3.9,1.6c1.6,0,3.4-0.5,5.3-1.4c1.9-1,3.2-1.7,4-2.3c0.7-0.6,1.3-1.1,1.7-1.4l-1.3-2.5L335.5,79.6z"/>
	<path class="st0" d="M414.3,79.5c-1.8,0.9-2.9,1.4-3.2,1.4c-0.4,0-0.6-0.9-0.6-2.8c0-1.8,0.4-5,1.1-9.3c0.7-4.4,1.7-8.5,2.9-12.5
		c-3.8-1.3-6.8-2-9.1-2c-0.4,1.2-0.7,1.8-0.8,1.9c-2.5-1.4-5.1-2.1-7.8-2.1c-3.8,0-6.9,1.9-9.6,5.6c-2.6,3.7-4,8.8-4,15.3
		c0,4.1,0.9,7.2,2.6,9.1c1.7,1.9,3.8,2.9,6.3,2.9s5.3-1.3,8.3-4c0.5,2.7,2.2,4,5.2,4c1.5,0,3.3-0.5,5.2-1.5s3.2-1.8,3.9-2.3
		c0.7-0.6,1.3-1.1,1.7-1.4l-1.3-2.5L414.3,79.5z M400.3,79.4c-1.4,0.9-2.7,1.4-3.9,1.4c-1.8,0-2.7-2-2.7-6.1s0.6-7.8,1.8-11.2
		c1.2-3.4,2.7-5.1,4.4-5.1c1,0,2.2,0.3,3.7,0.9C401.8,65.9,400.7,72.6,400.3,79.4z"/>
</g>
<g>
	
		<radialGradient id="SVGID_1_" cx="48.4667" cy="-243.8022" r="33.0575" gradientTransform="matrix(1 0 0 -0.3 0 78.3282)" gradientUnits="userSpaceOnUse">
		<stop  offset="0" style="stop-color:#5BA949;stop-opacity:0.5"/>
		<stop  offset="1" style="stop-color:#5BA949;stop-opacity:0"/>
	</radialGradient>
	<ellipse class="st1" cx="48.5" cy="151.4" rx="45.9" ry="8.7"/>
	<path class="st2" d="M35.5,48.7c0,6.9,6.8,15.4,9.9,19.7c0.6,0.9,3,0.9,3.7,0c3.1-4.3,9.9-13.5,9.9-19.7C59,42.2,53.8,37,47.3,37
		C40.8,37,35.5,42.2,35.5,48.7z"/>
	<path class="st3" d="M66.5,98.4c-1.4,1.9-4.2,1.8-5.4-0.2L58,93.3c-0.3-0.3-0.5-0.7-0.7-1L56,90.4c-0.7-1.1-0.6-2.3,0.2-3.4l1-1.1
		c0.2-0.3,0.4-0.4,0.6-0.7C68.2,71,75.1,63,75.6,53l0,0c0-2,0-3.6,0-4.5v-1.8c-0.1-0.9-0.2-1.8-0.4-2.7c0-0.1,0-0.2-0.1-0.3
		c-0.1-0.5-0.2-1-0.4-1.5c0-0.1,0-0.2-0.1-0.3c-0.1-0.3-0.2-0.5-0.2-0.8c0-0.1-0.1-0.3-0.1-0.4c-0.2-0.5-0.3-1-0.5-1.4
		c0-0.1-0.1-0.2-0.1-0.3c-0.1-0.3-0.2-0.6-0.3-0.8c0-0.1-0.1-0.2-0.1-0.3c-0.2-0.5-0.5-1.1-0.8-1.6c0-0.1-0.1-0.1-0.1-0.2
		c-0.2-0.3-0.3-0.6-0.5-1c0,0,0-0.1-0.1-0.1c-0.2-0.3-0.4-0.6-0.5-1c-3.8-6.5-9.9-11-17.2-12.9c-7.4-1.9-15-0.8-21.6,3.1
		c-8.8,5-13.8,14.3-13.8,24.1c0,4.9,1.3,9.8,3.9,14.3l33.2,56.2c0.2,0.4,0.4,0.8,0.6,1.3l0.9,1.6c0.7,1.2,0.6,2.6-0.2,3.7l-5.7,7.5
		c-1.4,1.8-4.2,1.7-5.4-0.3l-3-5.1c-0.2-0.2-0.3-0.5-0.5-0.7L9.3,70.6C-3,49.8,3.9,22.9,24.7,10.6c10.1-6,22-7.7,33.4-4.7
		C69.4,8.8,78.9,16,84.8,26c2.3,3.9,3.9,7.7,5,11.6l0,0c2,7.1,2,14.2,0.1,21.5c0,0.1,0,0.1-0.1,0.2c-0.1,0.4-0.2,0.8-0.3,1.2
		c0,0.1-0.1,0.2-0.1,0.4c-0.1,0.5-0.3,1-0.5,1.4c0,0.1,0,0.1-0.1,0.2l0,0c-3.6,10.6-11.1,20.9-18.4,30.8L66.5,98.4z"/>
	<path class="st3" d="M39.9,39.5c7.9,1.6,13.9,8.6,13.9,17c0,2.6-0.6,5.2-1.7,7.4c-1.2,1.7-2.3,3.2-3.1,4.4c-0.6,0.9-3,0.9-3.7,0
		c-3.1-4.3-9.9-12.8-9.9-19.7C35.5,45,37.2,41.7,39.9,39.5z"/>
	<path class="st2" d="M39.3,12.3c-17.9,0-32.8,14.3-35.7,31.4c-0.3,2-0.4,4.2-0.4,7.2l0,0c0,0,0-0.2,0,0.3v-0.5
		c0,0.5,0.1,0.8,0.1,1.3c0,0.1,0,0.1,0,0.2c0,0.6,0.1,1.1,0.2,1.6l0,0c0.2,1.3,0.4,2.5,0.6,3.7l0,0l0,0c1,4.5,2.6,8.8,5.1,12.9
		l33.2,56.2c0.2,0.3,0.3,0.5,0.5,0.7l3,5.1c1.2,2,4,2.1,5.4,0.3l5.7-7.5c0.8-1.1,0.9-2.5,0.2-3.7l-0.8-1.4c-0.2-0.4-0.5-0.9-0.8-1.4
		L35.7,84.6l0,0l-13-22c-0.2-0.3-0.3-0.6-0.5-0.8c-0.1-0.1-0.1-0.3-0.2-0.4c-0.1-0.1-0.2-0.3-0.2-0.4c-0.1-0.2-0.2-0.4-0.3-0.5
		s-0.1-0.2-0.2-0.3c-0.1-0.2-0.2-0.4-0.3-0.6c0-0.1-0.1-0.2-0.1-0.3c-0.1-0.2-0.2-0.4-0.3-0.7c0-0.1-0.1-0.1-0.1-0.2
		c-0.1-0.2-0.2-0.5-0.3-0.7c0-0.1,0-0.1-0.1-0.2c-0.1-0.3-0.2-0.5-0.3-0.8v-0.1c-0.1-0.3-0.2-0.6-0.2-0.8c0,0,0,0,0-0.1
		c-0.1-0.3-0.1-0.6-0.2-0.9l0,0c-0.5-2.1-0.7-4.2-0.8-6.3l0,0v-0.1c0-9.8,5-19.1,13.9-24.4c6.6-3.9,14.2-5,21.6-3.1
		c7.3,1.9,13.4,6.5,17.2,12.9c0.2,0.3,0.4,0.6,0.5,1c0,0,0,0.1,0.1,0.1c0.2,0.3,0.3,0.6,0.5,1c0,0.1,0.1,0.1,0.1,0.2
		c0.3,0.6,0.5,1.1,0.8,1.6c0,0.1,0.1,0.2,0.1,0.3c0.1,0.3,0.2,0.6,0.3,0.8c0,0.1,0.1,0.2,0.1,0.3c0.2,0.5,0.4,1,0.5,1.4
		c0,0.1,0.1,0.3,0.1,0.4c0.1,0.3,0.2,0.5,0.2,0.8c0,0.1,0,0.2,0.1,0.3l0,0C71.8,25.1,57,12.3,39.3,12.3z"/>
</g>
</svg>
