<?xml version="1.0" encoding="utf-8"?>
<!-- Generator: Adobe Illustrator 19.2.1, SVG Export Plug-In . SVG Version: 6.00 Build 0)  -->
<svg version="1.1" id="Calque_1" xmlns="http://www.w3.org/2000/svg" xmlns:xlink="http://www.w3.org/1999/xlink" x="0px" y="0px"
	 viewBox="0 0 368 330" style="enable-background:new 0 0 368 330;" xml:space="preserve">
<style type="text/css">
	.st0{fill:url(#SVGID_1_);}
	.st1{fill:#E6E7E8;}
	.st2{fill:#FFFFFF;}
</style>
<g>
	
		<radialGradient id="SVGID_1_" cx="182.4" cy="231.495" r="45.5105" gradientTransform="matrix(1 0 0 -0.3 0 284.6202)" gradientUnits="userSpaceOnUse">
		<stop  offset="0" style="stop-color:#FFFFFF;stop-opacity:0.5"/>
		<stop  offset="1" style="stop-color:#FFFFFF;stop-opacity:0"/>
	</radialGradient>
	<ellipse class="st0" cx="182.4" cy="215.2" rx="63.3" ry="11.9"/>
	<path class="st1" d="M164.5,73.6c0,9.4,9.4,21.2,13.6,27.1c0.9,1.3,4.2,1.3,5.1,0c4.2-5.9,13.6-18.5,13.6-27.1
		c0-8.9-7.2-16.1-16.1-16.1S164.5,64.7,164.5,73.6z"/>
	<path class="st2" d="M207.2,142.1c-1.9,2.6-5.8,2.4-7.5-0.3l-4.2-6.7c-0.4-0.5-0.7-0.9-0.9-1.4l-1.7-2.6c-1-1.6-0.8-3.2,0.3-4.7
		l1.4-1.7c0.3-0.4,0.6-0.7,0.9-1.1C209.8,104,219.3,92,220,79l0,0c0.1-3,0-4.7,0-6c0-0.1,0-2.3,0-2.4c-0.1-1.2-0.3-2.5-0.5-3.7
		c0-0.1-0.1-0.3-0.1-0.4c-0.1-0.7-0.3-1.4-0.5-2.1c0-0.1-0.1-0.3-0.1-0.4c-0.1-0.4-0.2-0.7-0.3-1.1c-0.1-0.2-0.1-0.3-0.2-0.5
		c-0.2-0.7-0.5-1.3-0.7-2c-0.1-0.2-0.1-0.3-0.2-0.5c-0.2-0.4-0.3-0.8-0.5-1.2c-0.1-0.1-0.1-0.3-0.2-0.4c-0.3-0.7-0.7-1.5-1.1-2.3
		c0-0.1-0.1-0.2-0.1-0.3c-0.2-0.4-0.5-0.9-0.7-1.3c0,0,0-0.1-0.1-0.1c-0.2-0.4-0.5-0.9-0.8-1.3c-5.2-8.9-13.6-15.2-23.6-17.8
		c-10.1-2.6-20.7-1.1-29.7,4.2c-12.3,7.3-19.1,20.1-19.1,33.6c0,6.7,1.8,13.5,5.4,19.7l45.8,77.4c0.3,0.6,0.6,1.2,0.8,1.8l1.3,2.2
		c0.9,1.6,0.8,3.6-0.3,5l-7.9,10.3c-1.9,2.5-5.8,2.3-7.4-0.4l-4.2-7c-0.2-0.3-0.5-0.7-0.7-1l-45.8-77.4c-17-28.6-7.4-65.7,21.2-82.7
		c14-8.3,30.3-10.6,46-6.5c15.6,4,28.6,13.9,36.7,27.8c3.1,5.3,5.4,10.6,6.9,15.9l0,0c2.8,9.7,2.8,19.5,0.2,29.5
		c0,0.1-0.1,0.2-0.1,0.3c-0.2,0.6-0.3,1.1-0.5,1.7c0,0.2-0.1,0.3-0.1,0.5c-0.2,0.7-0.4,1.3-0.6,2c0,0.1-0.1,0.1-0.1,0.2l0,0
		c-5,14.6-15.3,28.8-25.3,42.4L207.2,142.1z"/>
	<path class="st2" d="M170.5,61.1c10.9,2.2,19.1,11.9,19.1,23.5c0,3.6-0.8,7.1-2.3,10.2c-1.6,2.4-3.1,4.5-4.3,6.1
		c-0.9,1.3-4.2,1.3-5.1,0c-4.2-5.9-13.6-17.7-13.6-27.1C164.5,68.5,166.8,64,170.5,61.1z"/>
	<path class="st1" d="M169.6,23.6c-24.7,0-45.2,19.3-49.2,42.9c-0.4,2.7-0.5,4.5-0.5,9.5l0,0c0,0,0,0.1,0,0.8c0,0.1,0-0.6,0-0.5
		c0,0.7,0.1,1.1,0.1,1.9c0,0.1,0,0.1,0,0.3c0.1,0.8,0.1,1.5,0.2,2.3l0,0c0.2,1.7,0.5,3.4,0.9,5.1l0,0l0,0c1.3,6.1,3.6,12.1,7,17.8
		l45.8,77.4c0.2,0.4,0.4,0.7,0.7,1l4.2,7c1.6,2.7,5.5,2.9,7.4,0.4l7.9-10.3c1.1-1.5,1.2-3.5,0.3-5l-1.1-1.9c-0.3-0.5-0.7-1.3-1.1-2
		l-27.9-47.1l0,0l-17.9-30.3c-0.2-0.4-0.4-0.8-0.7-1.2c-0.1-0.2-0.2-0.4-0.3-0.6c-0.1-0.2-0.2-0.4-0.3-0.6c-0.1-0.2-0.2-0.5-0.4-0.7
		c-0.1-0.1-0.1-0.3-0.2-0.4c-0.1-0.3-0.2-0.6-0.4-0.8c-0.1-0.1-0.1-0.2-0.2-0.4c-0.1-0.3-0.2-0.6-0.4-0.9c0-0.1-0.1-0.2-0.1-0.3
		c-0.1-0.3-0.2-0.7-0.4-1c0-0.1-0.1-0.1-0.1-0.2c-0.1-0.4-0.2-0.7-0.4-1.1v-0.1c-0.1-0.4-0.2-0.8-0.3-1.1v-0.1
		c-0.1-0.4-0.2-0.8-0.3-1.2c0,0,0,0,0-0.1c-0.7-2.9-1-5.8-1-8.7l0,0c0-0.1,0-0.1,0-0.2c0-13.5,6.8-26.4,19.1-33.6
		c9-5.3,19.6-6.9,29.7-4.2c10,2.6,18.4,8.9,23.6,17.8c0.3,0.4,0.5,0.9,0.8,1.3c0,0,0,0.1,0.1,0.1c0.2,0.4,0.5,0.9,0.7,1.3
		c0,0.1,0.1,0.2,0.1,0.3c0.4,0.8,0.7,1.5,1.1,2.3c0.1,0.1,0.1,0.3,0.2,0.4c0.2,0.4,0.3,0.8,0.5,1.2c0.1,0.2,0.1,0.3,0.2,0.5
		c0.3,0.7,0.5,1.3,0.7,2c0.1,0.2,0.1,0.3,0.2,0.5c0.1,0.4,0.2,0.7,0.3,1.1c0,0.1,0.1,0.3,0.1,0.4l0,0
		C214.5,41.2,194.1,23.6,169.6,23.6z"/>
</g>
<g>
	<path class="st2" d="M37.4,317.9c2.1,0,3.2-0.7,3.2-2.2c0-0.5-0.1-0.8-0.3-1.2c-0.2-0.3-0.4-0.6-0.8-0.8s-0.7-0.4-1.1-0.6
		c-0.4-0.2-0.9-0.3-1.3-0.5c-0.5-0.2-1-0.4-1.5-0.6s-0.9-0.5-1.3-0.8c-0.4-0.3-0.6-0.7-0.8-1.1s-0.3-1-0.3-1.6c0-1.3,0.4-2.3,1.3-3
		c0.9-0.7,2.1-1.1,3.6-1.1c0.9,0,1.7,0.1,2.4,0.3c0.7,0.2,1.3,0.4,1.6,0.6l-0.7,1.7c-0.3-0.2-0.7-0.4-1.3-0.5
		c-0.6-0.2-1.3-0.3-2-0.3c-0.4,0-0.8,0-1.1,0.1s-0.6,0.2-0.9,0.4c-0.3,0.2-0.5,0.4-0.6,0.6c-0.1,0.3-0.2,0.6-0.2,0.9
		c0,0.4,0.1,0.7,0.2,1c0.2,0.3,0.4,0.5,0.7,0.7s0.6,0.4,1,0.6s0.8,0.3,1.2,0.5c0.6,0.3,1.2,0.5,1.7,0.8c0.5,0.3,1,0.6,1.4,0.9
		c0.4,0.4,0.7,0.8,0.9,1.3c0.2,0.5,0.3,1.1,0.3,1.8c0,1.3-0.5,2.3-1.4,3s-2.3,1-4,1c-0.6,0-1.1,0-1.6-0.1s-0.9-0.2-1.3-0.3
		s-0.7-0.2-1-0.3c-0.3-0.1-0.5-0.2-0.6-0.3l0.6-1.7c0.3,0.2,0.8,0.4,1.5,0.6C35.6,317.8,36.4,317.9,37.4,317.9z"/>
	<path class="st2" d="M56.3,319.3c-0.2-0.6-0.5-1.3-0.7-1.9s-0.4-1.2-0.7-1.9h-6.7l-1.3,3.8h-2.1c0.6-1.6,1.1-3,1.6-4.3
		s1-2.6,1.5-3.8c0.5-1.2,0.9-2.3,1.4-3.4s1-2.2,1.5-3.2h1.9c0.5,1.1,1,2.1,1.5,3.2s0.9,2.2,1.4,3.4c0.5,1.2,1,2.4,1.5,3.8
		c0.5,1.3,1,2.8,1.6,4.3H56.3z M54.4,313.9c-0.5-1.2-0.9-2.4-1.3-3.6s-0.9-2.3-1.4-3.3c-0.5,1.1-1,2.2-1.4,3.3
		c-0.4,1.2-0.9,2.3-1.3,3.6H54.4z"/>
	<path class="st2" d="M67.7,319.6c-1,0-2-0.2-2.8-0.5s-1.6-0.8-2.2-1.5s-1.1-1.5-1.4-2.4s-0.5-2-0.5-3.3c0-1.2,0.2-2.3,0.6-3.3
		s0.9-1.8,1.5-2.4s1.4-1.1,2.2-1.5c0.8-0.3,1.8-0.5,2.7-0.5c0.6,0,1.2,0,1.6,0.1c0.5,0.1,0.9,0.2,1.3,0.3c0.4,0.1,0.7,0.2,0.9,0.3
		c0.2,0.1,0.4,0.2,0.5,0.3l-0.6,1.7c-0.1-0.1-0.3-0.2-0.6-0.3c-0.2-0.1-0.5-0.2-0.8-0.3c-0.3-0.1-0.6-0.2-1-0.2
		c-0.4-0.1-0.7-0.1-1.1-0.1c-0.8,0-1.5,0.1-2.1,0.4s-1.2,0.7-1.6,1.2s-0.8,1.1-1,1.9c-0.2,0.7-0.4,1.5-0.4,2.4s0.1,1.7,0.3,2.4
		s0.5,1.3,0.9,1.9c0.4,0.5,0.9,0.9,1.5,1.2c0.6,0.3,1.3,0.4,2.2,0.4c0.9,0,1.7-0.1,2.4-0.3c0.6-0.2,1.1-0.4,1.4-0.5l0.5,1.7
		c-0.1,0.1-0.3,0.2-0.5,0.3c-0.3,0.1-0.6,0.2-1,0.3c-0.4,0.1-0.8,0.2-1.3,0.3S68.3,319.6,67.7,319.6z"/>
	<path class="st2" d="M79.5,317.9c2.1,0,3.2-0.7,3.2-2.2c0-0.5-0.1-0.8-0.3-1.2c-0.2-0.3-0.4-0.6-0.8-0.8s-0.7-0.4-1.1-0.6
		s-0.9-0.3-1.3-0.5c-0.5-0.2-1-0.4-1.5-0.6s-0.9-0.5-1.3-0.8s-0.6-0.7-0.8-1.1c-0.2-0.4-0.3-1-0.3-1.6c0-1.3,0.4-2.3,1.3-3
		s2.1-1.1,3.6-1.1c0.9,0,1.7,0.1,2.4,0.3c0.7,0.2,1.3,0.4,1.6,0.6l-0.7,1.7c-0.3-0.2-0.7-0.4-1.3-0.5c-0.6-0.2-1.3-0.3-2-0.3
		c-0.4,0-0.8,0-1.1,0.1c-0.3,0.1-0.6,0.2-0.9,0.4c-0.3,0.2-0.5,0.4-0.6,0.6c-0.1,0.3-0.2,0.6-0.2,0.9c0,0.4,0.1,0.7,0.2,1
		c0.2,0.3,0.4,0.5,0.7,0.7c0.3,0.2,0.6,0.4,1,0.6s0.8,0.3,1.2,0.5c0.6,0.3,1.2,0.5,1.7,0.8s1,0.6,1.4,0.9c0.4,0.4,0.7,0.8,0.9,1.3
		c0.2,0.5,0.3,1.1,0.3,1.8c0,1.3-0.5,2.3-1.4,3s-2.3,1-4,1c-0.6,0-1.1,0-1.6-0.1s-0.9-0.2-1.3-0.3s-0.7-0.2-1-0.3
		c-0.3-0.1-0.5-0.2-0.6-0.3l0.6-1.7c0.3,0.2,0.8,0.4,1.5,0.6C77.7,317.8,78.5,317.9,79.5,317.9z"/>
	<path class="st2" d="M104.6,319.3c-0.2-0.6-0.5-1.3-0.7-1.9s-0.4-1.2-0.7-1.9h-6.7l-1.3,3.8h-2.1c0.6-1.6,1.1-3,1.6-4.3
		s1-2.6,1.5-3.8c0.5-1.2,0.9-2.3,1.4-3.4s1-2.2,1.5-3.2h1.9c0.5,1.1,1,2.1,1.5,3.2s0.9,2.2,1.4,3.4c0.5,1.2,1,2.4,1.5,3.8
		c0.5,1.3,1,2.8,1.6,4.3H104.6z M102.7,313.9c-0.5-1.2-0.9-2.4-1.3-3.6s-0.9-2.3-1.4-3.3c-0.5,1.1-1,2.2-1.4,3.3
		c-0.4,1.2-0.9,2.3-1.3,3.6H102.7z M98.7,299.6l2.7,3.3l-1,0.9l-3-2.9L98.7,299.6z"/>
	<path class="st2" d="M120.2,304.5c2.1,0,3.6,0.4,4.8,1.2c1.1,0.8,1.7,2,1.7,3.5c0,0.8-0.2,1.6-0.5,2.2s-0.7,1.1-1.3,1.5
		c-0.6,0.4-1.3,0.6-2.1,0.8c-0.8,0.2-1.7,0.3-2.8,0.3h-1.6v5.4h-2.1v-14.5c0.6-0.1,1.2-0.2,1.9-0.3
		C118.9,304.5,119.6,304.5,120.2,304.5z M120.3,306.3c-0.9,0-1.5,0-2,0.1v5.8h1.5c0.7,0,1.3,0,1.9-0.1s1-0.2,1.4-0.5
		s0.7-0.5,0.9-0.9s0.3-0.9,0.3-1.5s-0.1-1-0.3-1.4c-0.2-0.4-0.5-0.7-0.9-0.9c-0.4-0.2-0.8-0.4-1.3-0.5
		C121.4,306.3,120.9,306.3,120.3,306.3z"/>
	<path class="st2" d="M139.2,319.3c-0.2-0.6-0.5-1.3-0.7-1.9s-0.4-1.2-0.7-1.9h-6.7l-1.3,3.8h-2.1c0.6-1.6,1.1-3,1.6-4.3
		s1-2.6,1.5-3.8c0.5-1.2,0.9-2.3,1.4-3.4s1-2.2,1.5-3.2h1.9c0.5,1.1,1,2.1,1.5,3.2s0.9,2.2,1.4,3.4c0.5,1.2,1,2.4,1.5,3.8
		c0.5,1.3,1,2.8,1.6,4.3H139.2z M137.3,313.9c-0.5-1.2-0.9-2.4-1.3-3.6s-0.9-2.3-1.4-3.3c-0.5,1.1-1,2.2-1.4,3.3
		c-0.4,1.2-0.9,2.3-1.3,3.6H137.3z"/>
	<path class="st2" d="M144.7,304.6h2.1v14.7h-2.1V304.6z"/>
	<path class="st2" d="M161.7,319.3c-0.3-0.5-0.7-1.1-1.1-1.8c-0.4-0.7-0.8-1.3-1.3-2s-1-1.4-1.5-2.1s-1-1.4-1.5-2.1s-1-1.3-1.4-1.9
		s-0.9-1.1-1.3-1.6v11.5h-2v-14.7h1.6c0.7,0.7,1.4,1.5,2.1,2.5c0.8,0.9,1.5,1.9,2.2,2.9s1.4,2,2.1,2.9c0.7,1,1.2,1.8,1.7,2.6v-10.9
		h2v14.7H161.7z"/>
	<path class="st2" d="M178.5,304.5c2.1,0,3.6,0.4,4.8,1.2c1.1,0.8,1.7,2,1.7,3.5c0,0.8-0.2,1.6-0.5,2.2s-0.7,1.1-1.3,1.5
		c-0.6,0.4-1.3,0.6-2.1,0.8c-0.8,0.2-1.7,0.3-2.8,0.3h-1.6v5.4h-2.1v-14.5c0.6-0.1,1.2-0.2,1.9-0.3
		C177.2,304.5,177.9,304.5,178.5,304.5z M178.6,306.3c-0.9,0-1.5,0-2,0.1v5.8h1.5c0.7,0,1.3,0,1.9-0.1s1-0.2,1.4-0.5
		s0.7-0.5,0.9-0.9s0.3-0.9,0.3-1.5s-0.1-1-0.3-1.4c-0.2-0.4-0.5-0.7-0.9-0.9c-0.4-0.2-0.8-0.4-1.3-0.5
		C179.7,306.3,179.2,306.3,178.6,306.3z"/>
	<path class="st2" d="M194.2,319.6c-1,0-1.8-0.1-2.5-0.4s-1.3-0.7-1.7-1.2c-0.5-0.5-0.8-1.1-1-1.8c-0.2-0.7-0.3-1.5-0.3-2.3v-9.2
		h2.1v9c0,1.5,0.3,2.5,1,3.2s1.5,1,2.5,1c0.5,0,1-0.1,1.4-0.2c0.4-0.2,0.8-0.4,1.1-0.8c0.3-0.3,0.6-0.8,0.7-1.3
		c0.2-0.5,0.3-1.2,0.3-1.9v-9h2.1v9.2c0,0.8-0.1,1.6-0.3,2.3c-0.2,0.7-0.6,1.3-1,1.8c-0.5,0.5-1,0.9-1.7,1.2
		C196,319.5,195.1,319.6,194.2,319.6z"/>
	<path class="st2" d="M208.5,319.5c-0.3,0-0.6,0-1,0c-0.3,0-0.7,0-1-0.1s-0.7-0.1-1-0.1s-0.7-0.1-0.9-0.2v-14.2
		c0.3-0.1,0.6-0.1,0.9-0.2c0.3,0,0.7-0.1,1-0.1s0.7,0,1-0.1c0.3,0,0.7,0,1,0c0.8,0,1.6,0.1,2.4,0.2c0.7,0.1,1.4,0.3,1.9,0.6
		c0.5,0.3,1,0.7,1.3,1.2s0.5,1.1,0.5,1.8c0,0.8-0.2,1.5-0.6,2s-0.9,0.9-1.5,1.2c0.9,0.3,1.5,0.7,2.1,1.2c0.5,0.6,0.8,1.3,0.8,2.3
		c0,1.5-0.5,2.6-1.6,3.3C212.6,319.1,210.9,319.5,208.5,319.5z M206.6,310.8h2.2c0.5,0,1,0,1.4-0.1c0.5-0.1,0.8-0.2,1.2-0.4
		s0.6-0.4,0.8-0.7c0.2-0.3,0.3-0.7,0.3-1.1s-0.1-0.8-0.3-1.1c-0.2-0.3-0.5-0.5-0.8-0.7s-0.8-0.3-1.2-0.4c-0.5-0.1-1-0.1-1.5-0.1
		s-0.9,0-1.2,0c-0.3,0-0.6,0-0.8,0.1v4.5H206.6z M206.6,312.5v5.2c0.2,0,0.3,0,0.6,0c0.2,0,0.4,0,0.6,0s0.5,0,0.9,0
		c0.6,0,1.2,0,1.7-0.1s1-0.2,1.4-0.4s0.7-0.5,1-0.8c0.2-0.4,0.4-0.8,0.4-1.3s-0.1-0.9-0.3-1.2s-0.4-0.6-0.8-0.8
		c-0.3-0.2-0.8-0.3-1.2-0.4s-1-0.1-1.6-0.1h-2.7V312.5z"/>
	<path class="st2" d="M228.3,317.5v1.8h-8.8v-14.7h2.1v12.9L228.3,317.5L228.3,317.5z"/>
	<path class="st2" d="M231.8,304.6h2.1v14.7h-2.1V304.6z"/>
	<path class="st2" d="M245,319.6c-1,0-2-0.2-2.8-0.5s-1.6-0.8-2.2-1.5s-1.1-1.5-1.4-2.4s-0.5-2-0.5-3.3c0-1.2,0.2-2.3,0.6-3.3
		s0.9-1.8,1.5-2.4s1.4-1.1,2.2-1.5c0.8-0.3,1.8-0.5,2.7-0.5c0.6,0,1.2,0,1.6,0.1c0.5,0.1,0.9,0.2,1.3,0.3c0.4,0.1,0.7,0.2,0.9,0.3
		c0.2,0.1,0.4,0.2,0.5,0.3l-0.6,1.7c-0.1-0.1-0.3-0.2-0.6-0.3c-0.2-0.1-0.5-0.2-0.8-0.3c-0.3-0.1-0.6-0.2-1-0.2
		c-0.4-0.1-0.7-0.1-1.1-0.1c-0.8,0-1.5,0.1-2.1,0.4s-1.2,0.7-1.6,1.2s-0.8,1.1-1,1.9c-0.2,0.7-0.4,1.5-0.4,2.4s0.1,1.7,0.3,2.4
		s0.5,1.3,0.9,1.9c0.4,0.5,0.9,0.9,1.5,1.2c0.6,0.3,1.3,0.4,2.2,0.4c0.9,0,1.7-0.1,2.4-0.3c0.6-0.2,1.1-0.4,1.4-0.5l0.5,1.7
		c-0.1,0.1-0.3,0.2-0.5,0.3c-0.3,0.1-0.6,0.2-1,0.3c-0.4,0.1-0.8,0.2-1.3,0.3S245.6,319.6,245,319.6z"/>
	<path class="st2" d="M253.1,304.6h2.1v14.7h-2.1V304.6z"/>
	<path class="st2" d="M269.9,304.6v1.8h-4.6v12.9h-2.1v-12.9h-4.6v-1.8H269.9z"/>
	<path class="st2" d="M281.8,319.3c-0.2-0.6-0.5-1.3-0.7-1.9s-0.4-1.2-0.7-1.9h-6.7l-1.3,3.8h-2.1c0.6-1.6,1.1-3,1.6-4.3
		s1-2.6,1.5-3.8c0.5-1.2,0.9-2.3,1.4-3.4s1-2.2,1.5-3.2h1.9c0.5,1.1,1,2.1,1.5,3.2s0.9,2.2,1.4,3.4c0.5,1.2,1,2.4,1.5,3.8
		c0.5,1.3,1,2.8,1.6,4.3H281.8z M279.9,313.9c-0.5-1.2-0.9-2.4-1.3-3.6s-0.9-2.3-1.4-3.3c-0.5,1.1-1,2.2-1.4,3.3
		c-0.4,1.2-0.9,2.3-1.3,3.6H279.9z"/>
	<path class="st2" d="M287.3,304.6h2.1v14.7h-2.1V304.6z"/>
	<path class="st2" d="M301.5,313.2c0.2,0.3,0.5,0.7,0.9,1.1s0.7,1,1.1,1.5c0.4,0.6,0.7,1.1,1.1,1.7c0.4,0.6,0.7,1.2,0.9,1.8h-2.2
		c-0.3-0.5-0.6-1.1-0.9-1.6c-0.3-0.6-0.7-1.1-1-1.6s-0.7-1-1-1.4s-0.6-0.8-0.9-1.1c-0.2,0-0.4,0-0.6,0c-0.2,0-0.4,0-0.6,0h-1.8v5.7
		h-2.1v-14.5c0.6-0.1,1.2-0.2,1.9-0.3c0.7,0,1.4-0.1,2-0.1c2.1,0,3.6,0.4,4.7,1.2c1.1,0.8,1.6,1.9,1.6,3.5c0,1-0.3,1.8-0.8,2.5
		C303.3,312.3,302.5,312.8,301.5,313.2z M298.4,306.3c-0.9,0-1.5,0-2,0.1v5.5h1.5c0.7,0,1.3,0,1.9-0.1c0.6-0.1,1-0.2,1.4-0.4
		c0.4-0.2,0.7-0.5,0.9-0.8s0.3-0.8,0.3-1.4s-0.1-1-0.3-1.4s-0.5-0.7-0.9-0.9s-0.8-0.4-1.3-0.4C299.5,306.3,298.9,306.3,298.4,306.3z
		"/>
	<path class="st2" d="M308.9,319.3v-14.7h9v1.8H311v4.4h6.1v1.7H311v5.1h7.4v1.8L308.9,319.3L308.9,319.3z"/>
	<path class="st2" d="M325.7,317.9c2.1,0,3.2-0.7,3.2-2.2c0-0.5-0.1-0.8-0.3-1.2c-0.2-0.3-0.4-0.6-0.8-0.8s-0.7-0.4-1.1-0.6
		c-0.4-0.2-0.9-0.3-1.3-0.5c-0.5-0.2-1-0.4-1.5-0.6s-0.9-0.5-1.3-0.8c-0.4-0.3-0.6-0.7-0.8-1.1s-0.3-1-0.3-1.6c0-1.3,0.4-2.3,1.3-3
		c0.9-0.7,2.1-1.1,3.6-1.1c0.9,0,1.7,0.1,2.4,0.3c0.7,0.2,1.3,0.4,1.6,0.6l-0.7,1.7c-0.3-0.2-0.7-0.4-1.3-0.5
		c-0.6-0.2-1.3-0.3-2-0.3c-0.4,0-0.8,0-1.1,0.1s-0.6,0.2-0.9,0.4c-0.3,0.2-0.5,0.4-0.6,0.6c-0.1,0.3-0.2,0.6-0.2,0.9
		c0,0.4,0.1,0.7,0.2,1c0.2,0.3,0.4,0.5,0.7,0.7s0.6,0.4,1,0.6s0.8,0.3,1.2,0.5c0.6,0.3,1.2,0.5,1.7,0.8s1,0.6,1.4,0.9
		c0.4,0.4,0.7,0.8,0.9,1.3s0.3,1.1,0.3,1.8c0,1.3-0.5,2.3-1.4,3s-2.3,1-4,1c-0.6,0-1.1,0-1.6-0.1s-0.9-0.2-1.3-0.3s-0.7-0.2-1-0.3
		c-0.3-0.1-0.5-0.2-0.6-0.3l0.6-1.7c0.3,0.2,0.8,0.4,1.5,0.6C323.9,317.8,324.8,317.9,325.7,317.9z"/>
</g>
<g>
	<path class="st2" d="M84.2,240.1c-3.7,0-8.4,0.4-14,1.2c0.7,2.7,0.5,6.4,0.5,6.4l0,0c-0.1,2.7-1.2,8.7-3.2,18
		c-2.2,9.7-3.4,15.8-3.7,18.2c0.3,0,0.8,0.1,1.6,0.1c3.6,0,6.3-0.4,8-1.3c0.2-2.9,1.1-8,2.8-15.3l0,0l1.1-4.8l0,0
		c1.8-7.8,3-13.9,3.7-18.2c1.1-0.3,2.1-0.4,2.9-0.4c1.2,0,2.1,0.5,2.7,1.6s0.9,2.4,0.9,4c0,4-0.8,7.1-2.4,9.5
		c-1.2,1.7-2.7,2.8-4.7,3.3c-0.6,1.6-0.9,3.4-1.1,4.4c5.8-0.1,10.1-1.6,13.1-4.7s4.5-7,4.5-11.5C96.9,243.6,92.7,240.1,84.2,240.1z"
		/>
	<path class="st2" d="M237,250.7c-1.4-1-2.7-2-3.9-3c-0.5-0.4-1.1-0.8-1.9-1.4s-1.4-1-1.9-1.4c-0.5-0.3-1.1-0.7-1.7-1.2
		c-2.5-1.7-4.3-2.6-5.4-2.6c-1.3,0-2.8,1.9-4.3,5.7c6.9,2.2,12.9,4.3,17.9,6.2L237,250.7z"/>
	<path class="st2" d="M47.7,278.1c-1.6,0.8-2.5,1.2-2.7,1.2c-0.3,0-0.5-0.8-0.5-2.4s0.3-4.2,0.9-7.9c0.6-3.7,1.4-7.2,2.5-10.6
		c-3.2-1.1-5.8-1.7-7.7-1.7c-0.4,1-0.6,1.5-0.7,1.6c-2.1-1.2-4.3-1.8-6.6-1.8c-3.2,0-5.9,1.6-8.1,4.7c-2.2,3.2-3.4,7.5-3.4,13
		c0,3.5,0.7,6.1,2.2,7.7c1.4,1.6,3.2,2.5,5.3,2.5s4.5-1.1,7.1-3.4c0.4,2.3,1.9,3.4,4.4,3.4c1.3,0,2.8-0.4,4.4-1.3
		c1.6-0.8,2.7-1.5,3.3-2c0.6-0.5,1.1-0.9,1.4-1.2l-1.1-2.1L47.7,278.1z M35.8,278c-1.2,0.8-2.3,1.2-3.3,1.2c-1.5,0-2.3-1.7-2.3-5.2
		s0.5-6.6,1.6-9.5c1-2.9,2.3-4.3,3.8-4.3c0.9,0,1.9,0.3,3.1,0.8C37.1,266.5,36.1,272.2,35.8,278z"/>
	<path class="st2" d="M140.7,258.4c-1.6-1.2-3.8-1.9-6.5-1.9c-4.2,0-7.6,1.5-10.3,4.5c-1,1.1-1.7,2.3-2.4,3.6
		c-1.5,0.3-3,0.5-4.4,0.5c0-6.1-1.6-9.1-4.8-9.1c-0.9,0-1.6,0.2-2.3,0.6l-2.2-0.1c-4.3,0-7.6,1.6-10.1,4.9
		c-2.4,3.3-3.6,7.2-3.6,11.7c0,3.6,0.8,6.3,2.4,8.3s3.8,3,6.6,3c3.7,0,6.8-1.6,9.1-4.7c2.4-3.2,3.9-6.9,4.7-11.2l1.2-0.2
		c0.9-0.2,1.6-0.3,2.4-0.5c-0.4,1.6-0.6,3.3-0.6,5.2c0,3.5,0.8,6.3,2.4,8.4s4,3.1,7.2,3.1c1.3,0,2.6-0.2,4-0.6
		c1.3-0.4,2.5-0.9,3.3-1.3s1.8-1.1,2.8-1.8c1-0.7,1.6-1.3,2-1.8l-1.4-1.9l-0.9,0.7c-0.7,0.5-1.5,0.9-2.6,1.4s-2.1,0.7-3.1,0.7
		c-3,0-4.5-2.5-4.5-7.4c0-3.1,0.5-6,1.5-8.7s2.3-4.1,3.9-4.1c0.7,0,1.2,0.1,1.5,0.4l-0.9,5.4c0.7,0.7,1.7,1.2,3.1,1.7
		c1.3,0.5,2.5,0.7,3.6,0.7c1.1-1.3,1.7-2.9,1.7-4.7C143.1,261.1,142.3,259.6,140.7,258.4z M110.9,275.8c-1.4,2.2-2.9,3.3-4.6,3.3
		c-2.2,0-3.4-2.2-3.4-6.6c0-3.1,0.4-5.9,1.3-8.3s1.9-3.9,2.9-4.6c0.1-0.1,0.3-0.1,0.6-0.1c0.2,0,0.4,0,0.6,0.1l-0.3,0.6
		c-0.5,1.1-0.8,2.4-0.8,3.7c0,3.3,2.2,4.9,6.6,4.9C113.2,271.3,112.3,273.6,110.9,275.8z"/>
	<path class="st2" d="M20.1,241.7c0-1.4-0.2-2.4-0.6-3c-2.8,0-5.8,0.6-8.9,1.7l0.4,2.7c0,4-1,10.6-3,19.8c-2,9.1-3,14.5-3,16.2
		s0.5,3,1.4,4c0.9,0.9,2.1,1.4,3.5,1.4s3.1-0.5,5.1-1.4s3.7-2,5.1-3.1l-1.1-2.1l-4.3,1.5c-0.4,0-0.6-0.8-0.6-2.3s1-7,3.1-16.4
		C19.1,251.3,20.1,244.9,20.1,241.7z"/>
	<path class="st2" d="M360.7,277.8l-0.7,0.4c-1.5,0.8-2.3,1.2-2.6,1.2s-0.5-0.6-0.5-1.9s0.5-3.8,1.4-7.6c0.9-3.8,1.4-6.4,1.4-7.9
		s-0.4-2.8-1.3-3.8c-0.9-1-2.1-1.5-3.5-1.5c-2.5,0-5.5,1.4-9,4.1c0-1.8-0.3-3.1-0.9-3.8c-4.9,0-8.4,0.3-10.6,0.9l-0.1,0.8l0.6,0.7
		c1.1,1.5,1.7,2.9,1.7,4.3c0,0.7-0.6,3.8-1.7,9.3c-1.2,5.4-1.7,9.1-1.7,11h1.2c3.7,0,6.3-0.3,7.7-0.9c0-2.7,0.7-7.2,2.1-13.6
		c0.7-3,1.1-4.8,1.2-5.5c1.7-1,3.2-1.5,4.4-1.5c0.7,0,1,0.6,1,1.7s-0.5,3.6-1.4,7.4s-1.4,6.5-1.4,7.9c0,3.4,1.5,5.1,4.5,5.1
		c1.3,0,2.8-0.4,4.4-1.3c1.7-0.8,2.8-1.5,3.4-2c0.6-0.5,1.1-0.9,1.5-1.2L360.7,277.8z"/>
	<path class="st2" d="M313,278.1c-1.6,0.8-2.5,1.2-2.7,1.2c-0.3,0-0.5-0.8-0.5-2.4s0.3-4.2,0.9-7.9c0.6-3.7,1.4-7.2,2.5-10.6
		c-3.2-1.1-5.8-1.7-7.7-1.7c-0.4,1-0.6,1.5-0.7,1.6c-2.1-1.2-4.3-1.8-6.6-1.8c-3.2,0-5.9,1.6-8.1,4.7c-2.2,3.2-3.4,7.5-3.4,13
		c0,3.5,0.7,6.1,2.2,7.7c1.4,1.6,3.2,2.5,5.3,2.5s4.5-1.1,7.1-3.4c0.4,2.3,1.9,3.4,4.4,3.4c1.3,0,2.8-0.4,4.4-1.3
		c1.6-0.8,2.7-1.5,3.3-2s1.1-0.9,1.4-1.2l-1.1-2.1L313,278.1z M301.2,278c-1.2,0.8-2.3,1.2-3.3,1.2c-1.5,0-2.3-1.7-2.3-5.2
		s0.5-6.6,1.6-9.5c1-2.9,2.3-4.3,3.8-4.3c0.9,0,1.9,0.3,3.1,0.8C302.4,266.5,301.4,272.2,301.2,278z"/>
	<path class="st2" d="M328.7,278.1c-1.6,0.8-2.6,1.2-2.8,1.2c-0.4,0-0.6-0.6-0.6-1.9s0.6-4,1.7-8.2c1.1-4.2,1.7-7.1,1.7-8.9
		c0-1.7-0.3-2.9-0.8-3.5c-4.9,0-8.4,0.3-10.5,0.9l-0.1,0.8l0.6,0.7c1.1,1.5,1.6,3.1,1.6,4.8c0,1.1-0.5,3.6-1.5,7.4s-1.5,6.5-1.5,8
		s0.4,2.7,1.2,3.6s1.9,1.3,3.4,1.3c1.4,0,3-0.4,4.7-1.3c1.7-0.8,2.8-1.5,3.4-2c0.6-0.5,1.1-0.9,1.5-1.2l-1-2.1L328.7,278.1z"/>
	<path class="st2" d="M326,241.8c-1.5,0-2.8,0.5-3.9,1.5c-1.1,1-1.7,2.2-1.7,3.6c0,1.3,0.4,2.4,1.2,3.2c0.8,0.8,1.9,1.2,3.4,1.2
		s2.7-0.5,3.9-1.5s1.7-2.2,1.7-3.5s-0.4-2.4-1.2-3.2C328.7,242.2,327.5,241.8,326,241.8z"/>
	<path class="st2" d="M195.6,258.3c-1.6-1.2-3.5-1.8-5.9-1.8c-3.9,0-7.4,1.5-10.5,4.4c-3.1,3-4.6,7-4.6,12.1c0,3.6,0.8,6.3,2.5,8.3
		c1.6,2,3.9,3,6.7,3s5.4-0.7,7.8-2c0.9-0.5,1.8-1.1,2.8-1.8c1-0.7,1.6-1.3,2-1.8l-1.5-2l-0.9,0.7c-0.6,0.5-1.5,1-2.6,1.5
		s-2.1,0.7-3.1,0.7c-2.9,0-4.4-1.9-4.7-5.8l0,0c-0.2-1.9,0-3.9,0-3.9l0,0c0.1-2,0.5-4.2,1.2-6.5c0.8-2.6,2-4,3.6-4
		c1.3,0,2,1.1,2,3.3c0,2.2-0.6,4-1.8,5.4c-0.6,0.7-1.3,1.2-2.1,1.7c-0.5,1.6-0.5,2.9-0.5,3.6c2.2-0.4,4.6-1.3,7.2-2.6
		c1.4-0.7,2.6-1.8,3.6-3.1c1-1.3,1.5-3,1.5-5S197.2,259.5,195.6,258.3z"/>
	<path class="st2" d="M274.5,240.1c-3.7,0-8.4,0.4-14,1.2c0.5,2.1,0.5,4.9,0.5,5.9c0,0,0,0,0,0.1c0,2.5-1.1,8.6-3.2,18.3
		c-2.2,9.7-3.4,15.8-3.7,18.2c0.3,0,0.8,0.1,1.6,0.1c3.6,0,6.3-0.4,8-1.3c0.2-3,1.2-8.3,2.9-16l0,0l0.9-4l0,0
		c1.8-7.8,3-13.9,3.7-18.2c1.1-0.3,2.1-0.4,2.9-0.4c1.2,0,2.1,0.5,2.7,1.6c0.6,1,0.9,2.4,0.9,4c0,4-0.8,7.1-2.4,9.5
		c-1.2,1.7-2.7,2.8-4.7,3.3c-0.5,1.6-0.9,3.4-1,4.4c5.8-0.1,10.1-1.6,13.1-4.7s4.5-7,4.5-11.5C287.1,243.6,282.9,240.1,274.5,240.1z
		"/>
	<path class="st2" d="M171,278.2c-1.4,0.7-2.2,1.1-2.6,1.1c-0.3,0-0.5-0.7-0.5-2s0.5-3.8,1.4-7.5s1.4-6.3,1.4-7.9s-0.4-2.9-1.2-3.9
		c-0.8-1-2-1.5-3.5-1.5c-2.5,0-5.4,1.2-8.7,3.6c2.3-9.7,3.4-15.9,3.4-18.6c0-1.5-0.2-2.5-0.6-2.8c-2.8,0-5.8,0.6-9,1.7
		c0.2,0.6,0.4,1.5,0.4,2.9c0,3.6-1.2,10.6-3.6,20.8c-2.4,10.3-3.6,16.3-3.6,18c0,0.5,0,1.1,0.1,1.8c4.1,0,7-0.3,8.8-1
		c0-2.9,1.1-9.4,3.4-19.2c1.6-0.9,2.9-1.3,4-1.3c0.9,0,1.3,0.5,1.3,1.6s-0.5,3.5-1.4,7.5c-0.9,3.9-1.4,6.7-1.4,8.1
		c0,1.5,0.4,2.7,1.2,3.6c0.8,0.9,1.9,1.3,3.3,1.3s2.9-0.4,4.5-1.2c1.6-0.8,2.8-1.5,3.4-2s1.1-0.9,1.5-1.2l-1.1-2.1L171,278.2z"/>
	<path class="st2" d="M237.9,278.1c-1.6,0.8-2.5,1.2-2.7,1.2c-0.3,0-0.5-0.8-0.5-2.4s0.3-4.2,0.9-7.9c0.6-3.7,1.4-7.2,2.5-10.6
		c-3.2-1.1-5.8-1.7-7.7-1.7c-0.4,1-0.6,1.5-0.7,1.6c-2.1-1.2-4.3-1.8-6.6-1.8c-3.2,0-5.9,1.6-8.1,4.7c-2.2,3.2-3.4,7.5-3.4,13
		c0,3.5,0.7,6.1,2.2,7.7c1.4,1.6,3.2,2.5,5.3,2.5c2.1,0,4.5-1.1,7.1-3.4c0.4,2.3,1.9,3.4,4.4,3.4c1.3,0,2.8-0.4,4.4-1.3
		c1.6-0.8,2.7-1.5,3.3-2c0.6-0.5,1.1-0.9,1.4-1.2l-1.1-2.1L237.9,278.1z M226.1,278c-1.2,0.8-2.3,1.2-3.3,1.2
		c-1.5,0-2.3-1.7-2.3-5.2s0.5-6.6,1.6-9.5c1-2.9,2.3-4.3,3.8-4.3c0.9,0,1.9,0.3,3.1,0.8C227.3,266.5,226.3,272.2,226.1,278z"/>
</g>
</svg>
