<?xml version="1.0" encoding="utf-8"?>
<!-- Generator: Adobe Illustrator 19.2.1, SVG Export Plug-In . SVG Version: 6.00 Build 0)  -->
<svg version="1.1" id="Calque_1" xmlns="http://www.w3.org/2000/svg" xmlns:xlink="http://www.w3.org/1999/xlink" x="0px" y="0px"
	 viewBox="0 0 379 553" style="enable-background:new 0 0 379 553;" xml:space="preserve">
<style type="text/css">
	.st0{fill:#F4F4F4;}
	.st1{fill:#F8F8F8;}
</style>
<g>
	<path class="st0" d="M142.4,192.6c0,28.2,27.9,63.2,40.5,80.9c2.7,3.7,12.5,3.7,15.1,0c12.6-17.7,40.5-55.2,40.5-80.9
		c0-26.5-21.5-48-48-48S142.4,166.1,142.4,192.6z"/>
	<path class="st1" d="M269.8,396.6c-5.7,7.7-17.3,7.3-22.3-0.8l-12.6-20c-1.1-1.4-2-2.7-2.8-4.2l-5.1-7.8c-2.9-4.7-2.4-9.6,0.8-14.1
		l4.1-5c1-1.2,1.8-2.3,2.7-3.5c42.7-58.4,70.9-92.2,72.9-133.2l0,0c0.2-9,0.1-13.8-0.1-17.6c0-0.2-0.1-6.7-0.1-6.9
		c-0.3-3.6-0.8-7.3-1.5-10.9c-0.1-0.4-0.2-0.7-0.2-1.1c-0.4-2.1-0.9-4.1-1.5-6.2c-0.1-0.4-0.2-0.7-0.3-1.1c-0.3-1.1-0.6-2.2-1-3.3
		c-0.2-0.5-0.3-1-0.5-1.6c-0.6-2-1.3-3.9-2.1-5.9c-0.2-0.5-0.4-0.9-0.5-1.4c-0.5-1.1-0.9-2.3-1.4-3.4c-0.2-0.4-0.4-0.9-0.6-1.3
		c-1-2.2-2.1-4.5-3.2-6.7c-0.1-0.3-0.3-0.5-0.4-0.8c-0.7-1.3-1.4-2.6-2.1-3.9c-0.1-0.1-0.1-0.3-0.2-0.4c-0.7-1.3-1.5-2.6-2.3-4
		C273.9,104.9,248.9,86,219,78.3c-30.2-7.8-61.7-3.3-88.6,12.7c-36.5,21.6-56.9,59.9-56.9,100.2c0.1,20,5.2,40.3,16.1,58.7
		l136.5,230.6c1,1.7,1.8,3.5,2.5,5.2l3.8,6.4c2.8,4.7,2.5,10.7-0.9,15L207.9,538c-5.8,7.5-17.3,6.9-22.2-1.2L173.2,516
		c-0.7-1-1.4-1.9-2-3L34.7,282.3c-50.5-85.4-22.2-196,63.2-246.5C139.5,11.2,188.2,4.3,235,16.4c46.5,12,85.4,41.4,109.5,82.7
		c9.3,15.8,16.1,31.6,20.6,47.4v0.1c8.2,29.1,8.4,58.2,0.6,88.1c-0.1,0.3-0.2,0.6-0.2,0.9c-0.4,1.7-0.9,3.4-1.4,5
		c-0.1,0.5-0.3,1-0.4,1.5c-0.6,2-1.5,3.9-2.1,5.9c-0.1,0.2,0.5,0.4-0.5,0.6l0,0c-14,43.6-45.4,85.8-75.2,126.5L269.8,396.6z"/>
	<path class="st1" d="M160.5,155.1c32.5,6.7,57,35.4,57,69.9c0,10.9-2.4,21.2-6.8,30.4c-4.8,7.1-9.3,13.3-12.7,18.1
		c-2.7,3.7-12.5,3.7-15.1,0c-12.6-17.7-40.5-52.8-40.5-80.9C142.4,177.4,149.5,163.9,160.5,155.1z"/>
	<path class="st0" d="M157.8,43.4c-73.6,0-134.7,57.3-146.6,127.5c-1.1,8-1.6,15.1-1.6,28.1l0,0c0,0,0.1,0.6,0.1,2.7
		c0,0.2,0-1.5,0-1.3c0.1,2.2,0.2,3.5,0.4,5.7c0,0.4,0.1,0.4,0.1,0.8c0.2,2.3,0.4,4.4,0.7,6.8l0,0c0.7,5.1,1.5,10.2,2.6,15.3l0,0l0,0
		c4,18.3,10.9,36.2,20.9,53.2L171.2,513c0.6,1,1.3,2,2,3l12.5,20.8c4.9,8.1,16.4,8.7,22.2,1.2l23.6-30.8c3.3-4.4,3.7-10.3,0.9-15
		l-3.1-5.7c-0.8-1.6-2-3.8-3.1-5.9L143,340.1l0,0l-53.4-90.2c-0.7-1.1-1.3-2.3-2-3.5c-0.3-0.6-0.6-1.1-0.9-1.7
		c-0.3-0.6-0.7-1.2-1-1.8c-0.4-0.7-0.7-1.5-1.1-2.2c-0.2-0.4-0.4-0.9-0.6-1.3c-0.4-0.8-0.7-1.6-1.1-2.5c-0.2-0.4-0.3-0.7-0.5-1.1
		c-0.4-0.9-0.7-1.8-1.1-2.7c-0.1-0.3-0.2-0.6-0.3-0.9c-0.4-1-0.7-2-1.1-2.9c-0.1-0.2-0.2-0.4-0.2-0.7c-0.4-1.1-0.7-2.1-1-3.2
		c0-0.1-0.1-0.3-0.1-0.4c-0.3-1.1-0.7-2.3-1-3.4c0-0.1-0.1-0.2-0.1-0.3c-0.3-1.2-0.6-2.3-0.9-3.5c0-0.1,0-0.1,0-0.2
		c-2-8.6-3.1-17.3-3.1-26l0,0c0-0.2,0-0.3,0-0.5c0.1-40.3,20.4-78.6,56.9-100.2C157.3,75,188.7,70.5,219,78.3
		c29.9,7.8,54.9,26.6,70.4,53.1c0.8,1.3,1.5,2.7,2.3,4c0.1,0.1,0.1,0.3,0.2,0.4c0.7,1.3,1.4,2.6,2.1,3.9c0.1,0.3,0.3,0.5,0.4,0.8
		c1.1,2.3,2.2,4.5,3.2,6.7c0.2,0.4,0.4,0.9,0.6,1.3c0.5,1.1,1,2.3,1.4,3.4c0.2,0.5,0.4,0.9,0.5,1.4c0.8,2,1.5,3.9,2.1,5.9
		c0.2,0.5,0.3,1,0.5,1.6c0.3,1.1,0.7,2.2,1,3.3c0.1,0.4,0.2,0.8,0.3,1.1c0,0,0,0,0,0.1C291.5,96,230.8,43.4,157.8,43.4z"/>
</g>
</svg>
