<?xml version="1.0" encoding="utf-8"?>
<!-- Generator: Adobe Illustrator 19.2.1, SVG Export Plug-In . SVG Version: 6.00 Build 0)  -->
<svg version="1.1" id="Calque_1" xmlns="http://www.w3.org/2000/svg" xmlns:xlink="http://www.w3.org/1999/xlink" x="0px" y="0px"
	 viewBox="0 0 1083.1 1203.1" style="enable-background:new 0 0 1083.1 1203.1;" xml:space="preserve">
<style type="text/css">
	.st0{fill:#FFFFFF;}
</style>
<path class="st0" d="M804.6,209.3c0-17-13.7-30.8-30.8-30.8H317.1c-16.9,0-30.7,13.8-30.7,30.8v86.9h518.3V209.3z M864.1,337.4H227
	c-48,0-86.9,44.5-86.9,99.3v247c0,54.8,38.9,99.3,86.9,99.3h28.6v-86.9c0-34.1,27.6-61.6,61.6-61.6h456.8c34,0,61.5,27.5,61.6,61.6
	v86.9h28.6c48,0,86.8-44.5,86.8-99.3v-247C950.9,381.9,912,337.4,864.1,337.4z M741.9,460.4c-19,0-34.3-15.4-34.3-34.3
	c0-19,15.3-34.4,34.3-34.4c19,0,34.4,15.4,34.4,34.4C776.2,445,760.8,460.4,741.9,460.4z M859.9,460.4c-19,0-34.3-15.4-34.3-34.3
	c0-19,15.4-34.4,34.3-34.4c19,0,34.4,15.4,34.4,34.4C894.3,445,878.9,460.4,859.9,460.4z M727.4,915.6H618.3c-1.5,0-2.9,0.6-4,1.6
	c-1,1-1.6,2.4-1.6,3.9v110.6h-249V699.3h-50.3v357.7c0,6.6,2.7,13.1,7.4,17.8c4.7,4.7,11.1,7.4,17.8,7.4h284.7
	c6.6,0,13.1-2.7,17.8-7.3l129.2-129c4.8-4.8,7.4-11.1,7.4-17.8V699.3h-50.3L727.4,915.6z"/>
</svg>
